<svg viewBox="0 0 205.65 411.3" xmlns="http://www.w3.org/2000/svg"><path d="m-102.83 102.83h411.3v205.65h-411.3z" fill="#fff" transform="matrix(0 1 -1 0 308.48 102.83)"/><path d="m113.53 31.15a106.91 106.91 0 0 0 -46.11 9.19c-15.14 6.66-28.59 17.87-36.03 32.66-4.56 9-6.77 19.12-7.57 29.21-2.48 31.31 10.29 65.06 37 81.54 14.69 9.07 32.64 12.39 49.77 10.27s33.44-9.52 47-20.17c7-5.47 13.37-11.87 17.84-19.53 4.75-8.14 7.2-17.43 8.76-26.73 4.33-25.81 1.08-55-17.42-73.51a79.91 79.91 0 0 0 -16.08-12c-9.54-5.66-17.8-6.79-28.4-10.08z" fill="#f4bd21"/><path d="m166.84 54.06a79.91 79.91 0 0 0 -16.08-12c-9.54-5.66-17.8-6.79-28.4-10.08l-8.83-.81a106.91 106.91 0 0 0 -46.11 9.19c-13.32 5.81-25.32 15.21-33.08 27.44a77.13 77.13 0 0 1 27.87-20.41 107.06 107.06 0 0 1 46.11-9.19l8.83.82c10.6 3.29 18.86 4.42 28.41 10.08a80.46 80.46 0 0 1 16.07 12c18.51 18.51 21.75 47.7 17.42 73.51-1.56 9.3-4 18.59-8.76 26.74-.28.48-.59.95-.89 1.42a57.85 57.85 0 0 0 6.1-8.48c4.75-8.14 7.2-17.43 8.76-26.73 4.33-25.8 1.08-54.99-17.42-73.5z" fill="#f9d073"/><path d="m175.5 154.3c4.75-8.14 7.2-17.43 8.76-26.73.46-2.75.83-5.54 1.11-8.35a104.1 104.1 0 0 1 -31.17 29.25c-20.27 12.36-44.3 17.94-68 17.55-10.28-.17-20.72-1.48-30.07-5.73-12.25-5.57-21.92-16-28.24-27.84q-1.63-3.07-3-6.29c3.86 23.35 16 45.27 36 57.57 14.69 9.07 32.64 12.39 49.77 10.27s33.44-9.52 47-20.17c6.99-5.47 13.34-11.83 17.84-19.53z" fill="#e2a60e"/><path d="m205.65 233.06a49.64 49.64 0 0 1 -35.46 19.18c-8.59.62-18.06-.82-25.1 4.13a6.61 6.61 0 0 0 -2 2.07 7.08 7.08 0 0 0 -.59 4.05c1 12.7 11.57 22.17 20.61 31.16s17.8 21.26 14.11 33.46c-3.5 11.53-16.18 17-26.16 23.69-15.23 10.27-25.94 25.89-39.67 38.1a57.87 57.87 0 0 1 -15.66 10.47c-9.54 4-20.4 4.05-30.49 1.77-8.91-2-17.6-5.94-24-12.5-8.24-8.57-11.74-20.64-14.03-32.35-3.31-16.93-4.8-34.26-9.56-50.84-3.53-12.33-9.16-24.45-17.65-33.91v139.76h205.65z" fill="#62d8f4"/><path d="m96.63 27.87a119.48 119.48 0 0 0 -51.11 23.27c-7.26 5.73-13.77 12.44-17.82 20.86-4 8.25-5.6 17.35-6.83 26.35-1.33 9.73-2.64 19.7-.84 29.46 1.65 9 5.65 17.53 10.56 25.17a85.38 85.38 0 0 0 36 31.69c17.1 7.77 34.16 6.88 52.1 2.82 15.54-3.52 31.8-8.1 44.33-18.43 14.07-11.59 19.9-30.51 22.41-48 2.46-17.2 1-35.17-5.91-51.22-12.84-29.66-51.31-48.7-82.89-41.97zm79.5 39.28a1 1 0 0 0 -1 .19c-1.18.92-2.92 0-3.78-.88a6.72 6.72 0 0 1 -1.62-3.1 7.49 7.49 0 0 1 .77-5.36c.58.78 1.14 1.56 1.68 2.35a64 64 0 0 1 3.95 6.8zm-139.13 2.02a5.2 5.2 0 0 1 -6.3 1.71 54.06 54.06 0 0 1 5.53-8.09 5.22 5.22 0 0 1 .77 6.38zm19.2 102.38v.4a36.57 36.57 0 0 1 -.36 4.44c-.56-.38-1.11-.78-1.66-1.17a1 1 0 0 0 .36-.34 13.58 13.58 0 0 0 1.63-3.33zm-3.36 2.32a1.32 1.32 0 0 0 -.13.27 82.83 82.83 0 0 1 -8.89-7.65c2.36-1.44 5.1-2.65 7.86-1.72 4.37 1.49 3.07 6.23 1.13 9.1zm131.68-65.56c-.45 17-4.49 37.11-14.91 51-9.61 12.69-24.9 19.13-39.76 23.31-16.66 4.68-34.28 8.71-51.39 4.19a74.37 74.37 0 0 1 -22-10 12.18 12.18 0 0 0 .68-4.85 11.68 11.68 0 0 0 -.49-3.54 5.72 5.72 0 0 0 -2.35-4.47c-3.74-2.83-8.38-1.13-11.94 1.08-13.62-14.18-22.26-33.12-21-52.48.65-10.38 2-21.16 4.95-31.14a51.87 51.87 0 0 1 3.46-8.73 7 7 0 0 0 7.76-11.38 61 61 0 0 1 5.47-5.44c15.2-13.43 34.31-22.18 54.17-26.06 24.76-5.28 55.84 6.54 72 26.51a9.47 9.47 0 0 0 -.31 10.11c1.61 2.66 5 4.47 7.7 2.33a1.07 1.07 0 0 0 .23-.25c5.86 12.27 8.06 26.43 7.7 39.81z"/><path d="m176 132.47a4.62 4.62 0 0 0 -5.57-3.14 1 1 0 0 0 -.33.17 1 1 0 0 0 -.34.11 4.18 4.18 0 0 0 -1 .8c-.76.22-1.5.74-2.21 1a34.78 34.78 0 0 1 -4 1.18.12.12 0 0 0 0 .23 10.87 10.87 0 0 0 4.4 0l.69-.13a4.65 4.65 0 0 0 .23 2.5 4.06 4.06 0 0 0 5.13 2.31 11.48 11.48 0 0 0 .76 5.77s.07 0 .08 0c.68-2.6 1.36-5.26 1.78-7.92a3.76 3.76 0 0 0 .38-2.88zm-3.72 3.17c-2.68.71-3.68-3-1.51-4.3 0 0 .05-.05.08-.08a.41.41 0 0 0 .11 0 2.58 2.58 0 0 1 3.11 1.74 1.85 1.85 0 0 1 -.06 1.19l-.11.24a2.67 2.67 0 0 1 -1.63 1.21z"/><path d="m157.4 80.65a4.78 4.78 0 0 0 -6.25.63 9.15 9.15 0 0 1 -1.14.42 9.28 9.28 0 0 1 -2.83.14 0 0 0 0 0 0 .06 4.77 4.77 0 0 0 2.79.63 7.43 7.43 0 0 0 1-.13v.09a4.1 4.1 0 0 0 6.72 4.51 5.71 5.71 0 0 0 .38-.48 9.39 9.39 0 0 0 .84 5.14c0 .08.18.05.17 0-.29-2.29.14-4.75-.14-7a3.85 3.85 0 0 0 -1.54-4.01zm-.71 4.35c-.77 1.31-2.42 1.82-3.51.58a2.24 2.24 0 0 1 1.24-3.67.58.58 0 0 0 .18-.08c1.63.01 3.17 1.31 2.09 3.17z"/><path d="m105.38 50.53a5.47 5.47 0 0 0 3 3.48s.11 0 .06-.08c-1.21-1-1.39-3.88-1.71-5.41-.27-1.27-.44-2.65-.83-3.91a4.72 4.72 0 0 0 -3.86-4.83.76.76 0 0 0 -.86-.45c-2.58.34-5.86 1.43-6.45 4.19-1.8 2.8-3.71 5.61-6.6 7.33-.07 0 0 .17.06.14a15.76 15.76 0 0 0 6.71-5.1c.87 2.24 3.68 3.48 6 3.32a5.85 5.85 0 0 0 3.66-1.6 26.73 26.73 0 0 0 .82 2.92zm-4.46-3.35a4.16 4.16 0 0 1 -4-1.83c-1.2-2.37 1.67-3.53 3.62-3.93a.81.81 0 0 0 .76.31 2.55 2.55 0 0 1 2.64 2.58c.06 1.69-1.49 2.69-3.02 2.87z"/><path d="m46 104.66a26.23 26.23 0 0 1 -.07-4.25c.07-.79.33-1.6.44-2.39a3.27 3.27 0 0 0 .63-2.72 4.06 4.06 0 0 0 -3.92-3.2.79.79 0 0 0 -1.08-.4 4.45 4.45 0 0 0 -2.67 3.22c-.64.78-1.32 1.52-2 2.3-1.19 1.38-2.23 3-3.53 4.27-.08.07 0 .18.1.14 2.16-1 3.63-1.59 5.1-3.52a6.14 6.14 0 0 0 .51-.81 3.84 3.84 0 0 0 4.29 2.24 4.34 4.34 0 0 0 .85-.25 34.77 34.77 0 0 0 1.25 5.39 0 0 0 0 0 .1-.02zm-2.72-7.06c-2.05.22-2.61-2.31-1.42-3.52a.93.93 0 0 0 .78.09 2 2 0 0 1 2.36 1.54c.25 1.08-.76 1.8-1.72 1.89z"/><path d="m103.21 50.85c-3.24 1-6.9.81-9.13-2.05 0 0-.11 0-.09.05 1.52 3.82 6.4 5.66 9.32 2.18.07-.03.01-.22-.1-.18z"/><path d="m42.71 89.94a6.19 6.19 0 0 1 4.47 1.4 6.25 6.25 0 0 1 1.57 2.83.24.24 0 0 0 .37 0c1.13-1.15-.1-2.94-1.11-3.71a6.45 6.45 0 0 0 -5.32-.7.07.07 0 0 0 .02.18z"/><path d="m38.68 73.85c2-.69 3.62-3.58 4-5.58a8.26 8.26 0 0 0 -2.12-6.6s0 0 0 0c.67 1.84 1.73 3.74 1.57 5.78-.19 2.38-2 4.38-3.64 5.94-.24.2-.06.55.19.46z"/><path d="m35.33 68.9c1.05-.42 1-2.16.52-3 0-.07-.17 0-.14.06a2.52 2.52 0 0 1 .07 1.56c-.14.45-.47.74-.64 1.16a.15.15 0 0 0 .19.22z"/><path d="m173.08 72.92c.14 0 .26-.18.11-.24-6-2.56-7.4-8.65-6.86-14.7 0-.14-.21-.16-.25 0-2.01 6.23-.23 13.7 7 14.94z"/><path d="m160.27 78.88c-1.88-1.83-4.12-1.62-6.49-1.08a.08.08 0 0 0 0 .16 7.16 7.16 0 0 1 5.43 1.65 6.9 6.9 0 0 1 1.64 5.27.21.21 0 0 0 .38.1 3.83 3.83 0 0 0 .67-3.07 6.21 6.21 0 0 0 -1.63-3.03z"/><path d="m113.55 161.86a4 4 0 0 0 -3.86-1.47.84.84 0 0 0 -1.08 0 4.61 4.61 0 0 0 -1.92 4.24c-.07.45-.11.91-.16 1.33-.3 2.54-.1 5.12-1 7.52l-.52 1.15a.42.42 0 0 0 .73.43 12.51 12.51 0 0 0 2.06-5.7c0-.21 0-.42 0-.63.77 1.32 1.94 2.29 3.6 1.6a5.08 5.08 0 0 0 2.93-3.46v.07a10.74 10.74 0 0 0 3.13 4.07 0 0 0 0 0 .07-.06c-1.07-2.07-1.28-4.43-2.29-6.51a8.57 8.57 0 0 0 -1.69-2.58zm-3.55 6.43c-.72-.38-1.11-2.32-1.22-3a3.2 3.2 0 0 1 .63-3 1 1 0 0 0 .59.08 2.5 2.5 0 0 1 2.75 2.59c-.02.93-1.19 4.17-2.75 3.33z"/><path d="m106.41 37.1a.19.19 0 0 0 0-.37 84.17 84.17 0 0 0 -30.62 5.17 94.59 94.59 0 0 0 -13.79 6.23 80 80 0 0 0 -12.45 9s0 .1.06.07a131.42 131.42 0 0 1 12.89-7.42 103.55 103.55 0 0 1 14.16-6.31 121.68 121.68 0 0 1 29.75-6.37z"/><path d="m158.49 52c-10.3-11.59-27.26-18.42-42.66-17a0 0 0 1 0 0 .07 60.15 60.15 0 0 1 23.65 5.24c6.94 3 12.9 7.34 18.87 11.92.11.02.23-.15.14-.23z"/><path d="m174 77.37a.08.08 0 0 0 -.15 0c1.13 6.29 2.31 12.48 3 18.85.67 6.09 1.23 12.16 1.75 18.26a.18.18 0 0 0 .36 0 84.31 84.31 0 0 0 -4.96-37.11z"/><path d="m181.29 97.54c0-3.05-.75-6.41-1.24-9.42h-.06c.18 3.06.15 6.51.86 9.48a.22.22 0 0 0 .44-.06z"/><path d="m34.41 144.76a73.52 73.52 0 0 1 -4.93-14 87.12 87.12 0 0 1 -1.75-28.76c0-.08-.13-.1-.15 0a62.42 62.42 0 0 0 .32 29.3 73.67 73.67 0 0 0 4.75 13.61c2.08 4.5 4.52 9.28 8.16 12.72a.35.35 0 0 0 .55-.42c-2.14-4.29-4.91-8.15-6.95-12.45z"/><path d="m31.54 126.51c-.19-1-.6-2-.8-3a19.67 19.67 0 0 1 -.34-3.5.09.09 0 1 0 -.17 0c-.23 2.07-.15 4.8.89 6.66.13.25.47.08.42-.16z"/><path d="m57.18 162.18s0 0 0 0c.9 1.83 2.31 3.15 2.9 5.21s0 3.89.14 5.95a.26.26 0 0 0 .48.14c2.06-2.94-.04-10.08-3.52-11.3z"/><path d="m113.56 157.22a6.48 6.48 0 0 0 -7.61 2c-.1.13.07.32.19.19a6.52 6.52 0 0 1 7.67-1.21c2.35 1.31 2.7 3.63 3.68 5.88a.28.28 0 0 0 .51-.08c.6-2.79-2-5.76-4.44-6.78z"/><path d="m159.58 158.22a12.47 12.47 0 0 0 -2 1.64c-1 .78-2 1.56-3 2.27-3.22 2.21-6.74 3.87-10 6a.49.49 0 0 0 .37.89 26.15 26.15 0 0 0 8.52-4.5c.68-.5 6.93-5.42 6.78-6.08l.05.07a0 0 0 0 0 0 0c.22-.12.15 0 .27-.23a.12.12 0 0 0 -.05-.17c-.52-.31-.36-.11-.94.11z"/><path d="m146.89 153.18c-.06.07 0 .16.11.1a14.75 14.75 0 0 0 1.29-1.33s0-.1-.07-.06a12.45 12.45 0 0 0 -1.33 1.29z"/><path d="m129.64 143.88a.13.13 0 0 0 0 .26 8 8 0 0 0 3.41-1.12s0-.08 0-.07a34.61 34.61 0 0 1 -3.41.93z"/><path d="m85.46 146.07a34.39 34.39 0 0 1 -7.55 1 .08.08 0 1 0 0 .15 23 23 0 0 0 7.65-.8.19.19 0 0 0 -.1-.35z"/><path d="m79.22 169.19c.16 0 .23-.29 0-.32a17.32 17.32 0 0 1 -5.54-1.53.07.07 0 0 0 -.07.13 9.43 9.43 0 0 0 5.61 1.72z"/><path d="m79.78 177.89a17.16 17.16 0 0 0 -3.43-.46c-.06 0-.07.08 0 .09a16.73 16.73 0 0 0 3.41.61.12.12 0 0 0 .02-.24z"/><path d="m76.12 62.56a11.66 11.66 0 0 0 -4.67-.05 13.59 13.59 0 0 0 -5 1.33.05.05 0 0 0 0 .1c1.72 0 3.41-.55 5.13-.67a35 35 0 0 0 4.57-.37c.14-.03.13-.3-.03-.34z"/><path d="m132.3 53c-1.05.14-2.11.37-3.15.61-.08 0-.06.15 0 .14 1.06-.14 2.12-.3 3.16-.53.14-.06.12-.22-.01-.22z"/><path d="m105.63 68.69c-.08 0-.08.11 0 .12a8 8 0 0 0 3.16-.21.1.1 0 1 0 -.05-.19 10.52 10.52 0 0 1 -3.11.28z"/><path d="m148.58 57.41c-.06 0-.14.06-.08.11a27.79 27.79 0 0 1 3.93 4.59c.21.28.66 0 .48-.27a15.88 15.88 0 0 0 -4.33-4.43z"/><path d="m36.58 84.2a26.73 26.73 0 0 1 3.71-3.34 0 0 0 0 0 0-.07 9 9 0 0 0 -3.84 3.27.11.11 0 0 0 .13.14z"/><path d="m102.8 154.29c-1.58-.22-3.28.93-4.55 1.73a.13.13 0 0 0 .13.22 20.79 20.79 0 0 1 2.47-.88 9.07 9.07 0 0 0 2-.68c.15-.08.15-.36-.05-.39z"/><path d="m48.66 153.38a20 20 0 0 1 -2.66-2.47s-.08 0-.07 0c.4 2.05 3.74 4.34 5.78 3.92a.15.15 0 0 0 0-.27 31.28 31.28 0 0 1 -3.05-1.18z"/><path d="m135.27 136.07c-.79 0-1.57 0-2.35 0-.11 0-.11.17 0 .18h2.35a.13.13 0 0 0 0-.18z"/><path d="m165.35 100.46c.25.93.47 1.88.66 2.83a10.62 10.62 0 0 0 .54 2.5.19.19 0 0 0 .34-.05c.25-1.7-.68-3.79-1.3-5.35a.13.13 0 0 0 -.24.07z"/><path d="m169.7 117.13c0 .1.15.11.18 0a17.19 17.19 0 0 0 .52-3c0-.07-.09-.1-.11 0a17.63 17.63 0 0 0 -.59 3z"/><path d="m179.17 121.54c0 .63.09 1.26.13 1.89a10.24 10.24 0 0 0 .14 1.66c0 .13.23.1.24 0a9.21 9.21 0 0 0 -.21-1.64c-.09-.62-.17-1.25-.25-1.87-.01-.07-.05-.06-.05-.04z"/><path d="m182.33 110.36a13.19 13.19 0 0 1 -.4-3.48 0 0 0 1 0 -.07 0 8.46 8.46 0 0 0 .22 3.54.13.13 0 0 0 .25-.06z"/><path d="m37.44 143.3a15.35 15.35 0 0 1 -2.75-5.05s-.06 0-.06 0a9 9 0 0 0 2.07 5.61c.35.4 1.06-.13.74-.56z"/><path d="m74 47.33a.11.11 0 0 0 .06.21c3-.83 6-1.35 9.09-2 .24-.06.19-.46-.06-.44a38.71 38.71 0 0 0 -9.09 2.23z"/><path d="m122.94 40.19a29.52 29.52 0 0 0 -5-.25.07.07 0 0 0 0 .14c1.65.09 3.28.22 4.92.47a.18.18 0 1 0 .08-.36z"/><path d="m106 63.44a0 0 0 1 0 0 .08c1 0 2 .08 2.93 0 .11 0 .11-.17 0-.18-1.03.02-2.01.06-2.93.1z"/><path d="m108.94 45.87a6.52 6.52 0 0 0 -1.42-3s-.11 0-.08.07a22.15 22.15 0 0 1 1.33 3 .09.09 0 0 0 .17-.07z"/><path d="m102 44.44a3.67 3.67 0 0 1 -3.83-.44.17.17 0 0 0 -.24.24 4.1 4.1 0 0 0 4.35 1.32c.72-.26.39-1.37-.28-1.12z"/><path d="m42.39 95.38s-.06 0 0 0 0 .23.11.36a3.11 3.11 0 0 0 .25.38 1.74 1.74 0 0 0 .46.54c.09.07.2 0 .18-.13a2.11 2.11 0 0 0 -.46-.72c-.2-.17-.38-.24-.54-.43z"/><path d="m47.56 166.19a0 0 0 0 0 0 .05c.56.2 1.16.15 1.73.36a5 5 0 0 1 1.84 1.26 4.81 4.81 0 0 1 1.3 3.82c0 .5.8.62.88.12a5 5 0 0 0 -1.65-4.47c-.92-.81-2.9-1.87-4.1-1.14z"/><path d="m171.6 65.23c.4.74 1.3 2 2.25 1.85a.26.26 0 0 0 .17-.31c-.1-.42-.29-.48-.62-.77a6.86 6.86 0 0 1 -1.08-1.2 8.42 8.42 0 0 1 -1.19-2.8.09.09 0 0 0 -.16 0 5.1 5.1 0 0 0 .63 3.23z"/><path d="m155.14 83.32v.06a.26.26 0 0 0 -.32.05 1.62 1.62 0 0 0 -.51 1.69.35.35 0 0 0 .33.24c.24 0 .33-.21.35-.43a4.38 4.38 0 0 1 .28-1.24.27.27 0 0 0 -.07-.26h.09c.03-.06-.08-.17-.15-.11z"/><path d="m171.67 132.68a.12.12 0 0 0 -.21-.1c-.15.2-.23.16-.34.39a1.94 1.94 0 0 0 -.12.43 2.65 2.65 0 0 0 .05 1.12.31.31 0 0 0 .6-.17 2.8 2.8 0 0 1 0-1 4.8 4.8 0 0 1 .02-.67z"/><path d="m109.54 165c-.07-.14-.18-.15-.22-.34s-.07 0-.06 0c0 .19-.08.23-.08.37a3 3 0 0 0 .07.66 6.06 6.06 0 0 0 .17 1.12c.09.29.57.25.54-.07a7.25 7.25 0 0 0 -.26-1.21 5.7 5.7 0 0 0 -.16-.53z"/><path d="m79.36 28.22a81.6 81.6 0 0 1 15.29-3.22c4.85-.54 9.92-.15 14.71-.94.23 0 .19-.37 0-.43-4.76-1.52-10.64-.94-15.52-.35a79.3 79.3 0 0 0 -15.73 3.5 78.94 78.94 0 0 0 -27 16.12s0 0 0 0a82.39 82.39 0 0 1 28.25-14.68z"/><path d="m155.41 177.57c-2.16 1.33-4.16 2.94-6.44 4.08a76 76 0 0 1 -7.65 3.3 78.88 78.88 0 0 1 -15.17 3.63c-.15 0-.11.29 0 .27 21.49-2.25 41.46-14.65 52.58-33.14a0 0 0 1 0 0 0 80 80 0 0 1 -23.32 21.86z"/><path d="m190 96.31a48.93 48.93 0 0 0 -.88-8.62 62.17 62.17 0 0 0 -6.12-16.39s-.11 0-.08 0a81.49 81.49 0 0 1 4.83 16.26c.52 2.61.94 5.25 1.35 7.88.46 3 .19 5.92.39 8.89 0 .24.42.34.46.06a45 45 0 0 0 .05-8.08z"/><path d="m22.74 145.15c-1.59-4.4-2.66-9-3.9-13.47-1.42-5.18-3-10.26-3.61-15.63a.15.15 0 0 0 -.3 0c.1 5.1 1.22 10.14 2.25 15.12a96.27 96.27 0 0 0 4.63 15.68c3.15 8.07 7.75 16.09 15.26 20.77.38.24.84-.33.49-.63a51.21 51.21 0 0 1 -14.82-21.84z"/><path d="m18.66 150.28c0-.09-.14-.05-.13 0a12.72 12.72 0 0 0 3.93 7.43.38.38 0 1 0 .46-.6 11.79 11.79 0 0 1 -4.26-6.83z"/><path d="m0 79.85c7.6-4.64 15.55-9.27 18.08-17.53 2-6.63-.14-14.07 2.18-20.61a25.19 25.19 0 0 1 6.24-9c14.69-14.85 35.81-21.26 56.38-24.71 14-2.36 29.66-3.26 41.25 5 2.72 1.93 5.14 4.33 8.11 5.83 7.62 3.87 16.73 1.11 25.28.82 18.29-.62 35.47 11 45.28 26.49 1 1.62 2 3.28 2.85 5v-51.14h-205.65z" fill="#f93e97"/><path d="m205.65 256.66c-8 1.92-17.59 4.78-23.08 8.41a25.24 25.24 0 0 0 -10.65 24.93c1.27 7.07 5.53 13.18 9.73 19s8.58 11.82 10.14 18.83-.46 15.37-6.66 19c-2.76 1.62-6 2.14-9.07 3-14.82 4.34-25.69 18-29.71 32.9a72.83 72.83 0 0 0 -1.35 28.57h60.7z" fill="#43d0e8"/><path d="m26.62 390.32c-6.21-7.21-16.19-11.5-19.53-20.41s1.18-18.28 3-27.46.89-18.77-3.47-26.89a32.23 32.23 0 0 0 -6.62-8.51v104.25h34.08c-.23-7.73-2.42-15.12-7.46-20.98z" fill="#43d0e8"/><path d="m42.26 338.86a1.08 1.08 0 0 0 -.31.37.26.26 0 0 0 .17.38 1.4 1.4 0 0 0 .61 0c.74-.12.17-1.3-.47-.75zm0-133.56a1.08 1.08 0 0 0 -.31.37.27.27 0 0 0 .17.39 1.57 1.57 0 0 0 .61 0c.74-.13.17-1.3-.47-.76zm.09-175.63a.61.61 0 0 0 1 0l.07-.1a.63.63 0 1 0 -1.13 0zm-14.85 319.03a1.59 1.59 0 0 0 -.32.26.56.56 0 0 0 0 .81 2 2 0 0 0 .32.25.8.8 0 1 0 0-1.32zm9.8-306a.53.53 0 0 0 .54-.5c0-.47-.31-.79-.72-1-.58-.33-1.31.34-.94.87a1.25 1.25 0 0 0 1.12.67zm-11.94 264.97c0 .92 1.57.93 1.57 0s-1.57-.93-1.57 0zm2.42 64.92c-.86.14-.86 1.12 0 1.27a.67.67 0 1 0 0-1.27zm-.66-92.35c.05-.16.07-.12.22-.18.66-.26.09-1.22-.57-.9a.72.72 0 0 0 -.24 1.22.37.37 0 0 0 .59-.14zm8.88-228.47c0-.19-.32-.19-.32 0s.32.23.32 0zm-5.81 248.67c0-.11-.19-.11-.19 0a.1.1 0 0 0 .19 0zm0-265.34c0-.11-.19-.11-.19 0s.19.11.19 0zm7.11 139.42a.53.53 0 0 0 .54-.49 1.13 1.13 0 0 0 -.72-1c-.58-.34-1.31.33-.94.87a1.24 1.24 0 0 0 1.12.62zm-7.5 184.29c0 .65 1.1.65 1.1 0s-1.1-.65-1.1 0zm46.55-106.29a2 2 0 0 0 .34-.14.24.24 0 0 0 0-.43 3.49 3.49 0 0 0 -.34-.15c-.65-.24-.65.97 0 .72zm-2.11-241a1.64 1.64 0 0 0 1.69-1.54 1.7 1.7 0 0 0 -3.38 0 1.65 1.65 0 0 0 1.69 1.5zm4.55 221.14a.82.82 0 0 0 -.72-.28.42.42 0 0 0 -.42.38.7.7 0 0 0 .31.66c.52.46 1.37-.32.83-.8zm.13 12.32c0-.29-.49-.29-.49 0s.49.25.49-.04zm1.19-47.47c0 2.55 4.33 2.55 4.33 0s-4.33-2.59-4.33-.04zm-60.88 185.75a.61.61 0 0 0 -.44 0 .23.23 0 0 0 0 .44.67.67 0 0 0 .44 0 .24.24 0 0 0 0-.44zm61.77-170.26c0-.58-1-.58-1 0s1 .61 1 0zm-31.21-170.59a.37.37 0 0 0 .69 0l.06-.26c.16-.63-1-.63-.82 0a2.5 2.5 0 0 0 .07.26zm20.94-29.64.21.06c.55.3.55-.76 0-.46l-.21.06a.17.17 0 0 0 0 .34zm3.25 4-.27.1a.22.22 0 0 0 0 .42l.27.1c.57.2.57-.83.02-.62zm-47.09 299.23a.86.86 0 0 1 .39-.09.12.12 0 1 0 0-.24.86.86 0 0 1 -.39-.09c-.5-.29-.5.71 0 .42zm48.11-60.41a2.58 2.58 0 0 1 .08.26.32.32 0 0 0 .59 0l.08-.26c.14-.59-.97-.59-.75 0zm-.5-222.12c0-.5-.84-.5-.84 0s.84.53.84 0zm-62.82 339.2a.42.42 0 0 0 -.83 0c0 .49.83.49.83 0zm-2.85-360.56h.29a.36.36 0 0 0 .28-.62c-.23-.21-.72-.07-.68.26v.29a.08.08 0 0 0 .11.07zm.25 24.38a1.73 1.73 0 1 0 -1.88-1.73 1.83 1.83 0 0 0 1.88 1.73zm2.6 70.83c0-.49-.83-.49-.83 0s.83.5.83 0zm-4.07 11.16.55.07c.37 0 .87-.14.82-.58 0-.14 0-.28 0-.42a1.07 1.07 0 0 0 -1.69-.75.93.93 0 0 0 .32 1.68zm-3.61 286.16c0 .59 1 .59 1 0s-1-.59-1 0zm0-58c0 1.27 2.16 1.27 2.16 0s-2.16-1.24-2.16.04zm7.86-296.39a.81.81 0 0 0 .14-.43c0-.5-.9-.5-.86 0a.81.81 0 0 0 .14.43.36.36 0 0 0 .58 0zm-4.25 200 .55.07c.37 0 .87-.15.82-.58 0-.14 0-.28 0-.42a1.07 1.07 0 0 0 -1.69-.76.94.94 0 0 0 .32 1.71zm7.62-158.2c0-1.1-1.86-1.1-1.86 0s1.86 1.09 1.86 0zm0 131.78c0-1.1-1.86-1.1-1.86 0s1.86 1.1 1.86 0zm-2.05-200.12c0-.82-1.4-.83-1.4 0s1.4.83 1.4 0zm0 265.35c0-.83-1.4-.83-1.4 0s1.4.82 1.4 0zm-1.32 26.54a.84.84 0 0 0 .14-.43c0-.51-.9-.51-.86 0a.84.84 0 0 0 .14.43.37.37 0 0 0 .58 0zm3.61-46.3a.43.43 0 0 0 .7 0 1.72 1.72 0 0 0 .26-.59c.29-.94-1.51-.95-1.22 0a1.93 1.93 0 0 0 .26.59zm-3.12-199.09a1.51 1.51 0 0 0 .16.31.34.34 0 0 0 .55 0 1.51 1.51 0 0 0 .16-.31c.3-.66-1.17-.67-.87 0zm15.15 144.94a1.54 1.54 0 0 0 -.32.25.56.56 0 0 0 0 .81 1.54 1.54 0 0 0 .32.25.8.8 0 1 0 0-1.31zm-13.88 49.85c0-.67-1.14-.67-1.14 0s1.14.64 1.14 0zm-.25 92.42c0 1.09 1.86 1.09 1.86 0s-1.86-1.13-1.86-.03zm-.89 41.14c0 .67 1.14.67 1.14 0s-1.14-.7-1.14-.03zm.58-62.66a1.91 1.91 0 0 0 .16-.32c.3-.66-1.17-.67-.87 0a1.91 1.91 0 0 0 .16.32.35.35 0 0 0 .55-.03zm-9.06-122.78c0 1.27 2.16 1.27 2.16 0s-2.16-1.28-2.16 0zm12.79-154.68-.5-.1a.33.33 0 1 0 0 .62 4 4 0 0 0 .5-.1.21.21 0 0 0 0-.42zm0 265.35a2.77 2.77 0 0 0 -.5-.1.33.33 0 1 0 0 .62 4 4 0 0 0 .5-.11.21.21 0 0 0 0-.41zm0-133.56a2.77 2.77 0 0 0 -.5-.1.33.33 0 1 0 0 .62l.5-.1a.21.21 0 0 0 0-.42zm-1.58 212a1.74 1.74 0 0 0 .26.59.43.43 0 0 0 .7 0 1.57 1.57 0 0 0 .26-.59c.29-.9-1.51-.91-1.22.03zm-11.21-320.9c0 1.28 2.16 1.28 2.16 0s-2.16-1.27-2.16 0zm1 58c0-.59-1-.6-1 0s1.05.56 1.05-.03zm4 243.99c0-.14 0-.28 0-.42a1.07 1.07 0 0 0 -1.69-.76.93.93 0 0 0 .36 1.68l.55.07c.31.05.78-.14.78-.57zm2.51 11.57c0 .46.77.46.77 0s-.79-.46-.79 0zm-2.41-96.5a1.73 1.73 0 1 0 0 3.44 1.84 1.84 0 0 0 1.9-1.72 1.82 1.82 0 0 0 -1.92-1.72zm-.51 107.1-.06.28a.17.17 0 0 0 0 .17.28.28 0 0 0 .3.14.28.28 0 0 0 .29-.14.17.17 0 0 0 0-.17l-.06-.28a.26.26 0 0 0 -.49 0zm-3.54-134.41c0-.59-1-.59-1 0s1 .6 1 0zm25.14-104.19a.1.1 0 0 0 -.19 0c0 .11.19.11.19 0zm-3.3-116.23a.86.86 0 0 1 .39-.09.12.12 0 1 0 0-.24.86.86 0 0 1 -.39-.09c-.5-.24-.5.76 0 .42zm.23-35.76c.05-.16.07-.12.22-.18.66-.26.09-1.22-.57-.9a.72.72 0 0 0 -.24 1.18.37.37 0 0 0 .59-.1zm-16 166.71a.84.84 0 0 0 .14.43.37.37 0 0 0 .58 0 .84.84 0 0 0 .14-.43c.02-.5-.88-.51-.84 0zm13.17-22c0 .73 1.24.73 1.24 0s-1.22-.67-1.22.05zm3 22.45a.66.66 0 0 1 -.39-.09c-.5-.29-.5.71 0 .42a.86.86 0 0 1 .39-.09.12.12 0 1 0 -.01-.19zm-1.92-8c0 .92 1.57.93 1.57 0s-1.58-.88-1.58.05zm0 61.32a1.22 1.22 0 0 0 .42.09.27.27 0 1 0 0-.54 1.22 1.22 0 0 0 -.42.09.2.2 0 0 0 .01.41zm1.56-193.06c0-.92-1.57-.93-1.57 0s1.57.93 1.57 0zm-15.15 113.18c0 .82 1.4.82 1.4 0s-1.4-.83-1.4 0zm-3.06-12v.29a.08.08 0 0 0 .08.07h.29a.36.36 0 0 0 .28-.62c-.2-.17-.69-.03-.65.29zm3 95.58c0-.49-.83-.5-.83 0s.79.52.79.03zm13.83-211.2c0-.73-1.24-.73-1.24 0s1.24.73 1.24 0zm-13.2 174.12a2.29 2.29 0 0 0 .16.31.35.35 0 0 0 .55 0 2.29 2.29 0 0 0 .16-.31c.3-.67-1.17-.67-.87 0zm-.86-72.45c0 .45.77.45.77 0s-.77-.46-.77 0zm0 131.78c0 .46.77.46.77 0s-.77-.46-.77 0zm2.13-128.14c0-.67-1.14-.67-1.14 0s1.14.67 1.14 0zm-5 7-.06.28a.15.15 0 0 0 0 .16.28.28 0 0 0 .3.14.28.28 0 0 0 .29-.14.15.15 0 0 0 0-.16l-.06-.28a.26.26 0 0 0 -.52-.04zm16.18 55.07c0-.5-.85-.5-.85 0s.8.46.8-.04zm0-131.79c0-.5-.85-.5-.85 0a.43.43 0 0 0 .8-.04zm-9.54 73.49a1.83 1.83 0 0 0 .26.59.43.43 0 0 0 .7 0 1.64 1.64 0 0 0 .26-.59c.24-.96-1.56-.96-1.27-.04zm-4.26 29.59a1.82 1.82 0 0 0 -1.88-1.72 1.73 1.73 0 1 0 0 3.44 1.84 1.84 0 0 0 1.88-1.72zm-1.89 105.87a.17.17 0 0 0 0-.17l-.06-.28a.26.26 0 0 0 -.49 0l-.06.28a.17.17 0 0 0 0 .17.28.28 0 0 0 .3.14.28.28 0 0 0 .31-.14zm-.28 5h.29a.37.37 0 0 0 .28-.63c-.23-.2-.72-.06-.68.26v.29a.08.08 0 0 0 .11.11zm171.87-101.64a.27.27 0 1 0 0 .54 1.22 1.22 0 0 0 .42-.09.2.2 0 0 0 0-.36 1.22 1.22 0 0 0 -.42-.09zm-2-4.78a.67.67 0 1 0 0 1.27c.88-.14.88-1.12.02-1.27zm.89 57.86a.86.86 0 0 1 -.39.09.12.12 0 1 0 0 .24.86.86 0 0 1 .39.09c.52.29.52-.71.02-.42zm.12 36.84a.73.73 0 0 0 .24-1.22.37.37 0 0 0 -.59.14c0 .16-.07.12-.22.18-.64.26-.07 1.2.59.9zm-.5-109.65a1.83 1.83 0 1 0 0-3.64 2.2 2.2 0 0 0 -1.45.6 1.31 1.31 0 0 0 -2-.31 1.44 1.44 0 0 0 -.56 1.22 1 1 0 0 0 1 .91 2.38 2.38 0 0 0 1-.25 2 2 0 0 0 2.03 1.47zm-.21 40.11a1.59 1.59 0 0 0 .32-.26.56.56 0 0 0 0-.81 2 2 0 0 0 -.32-.25.8.8 0 1 0 0 1.32zm3.18 55.48c0-.73-1.23-.73-1.23 0s1.23.73 1.23 0zm-5.48-197.37c0-.65-1.11-.65-1.11 0s1.11.65 1.11 0zm2.3 10.1a2 2 0 0 0 .32-.25.56.56 0 0 0 0-.81 1.59 1.59 0 0 0 -.32-.26.8.8 0 1 0 0 1.32zm-.28-23.88c.86-.15.86-1.13 0-1.27a.67.67 0 1 0 0 1.27zm2.42 196.7c0-.92-1.57-.93-1.57 0s1.57.93 1.57 0zm-17 12.66a.61.61 0 0 0 -1 0l-.07.1c-.28.38.09.9.56.9s.85-.52.57-.9zm.4-44.22a.26.26 0 0 0 -.17-.38 1.4 1.4 0 0 0 -.61 0c-.74.12-.17 1.3.47.75a1.08 1.08 0 0 0 .32-.37zm.57-14.86a.57.57 0 1 0 -1 0 .57.57 0 0 0 1.01 0zm-.85-182.64c0-.86-1.46-.87-1.46 0s1.46.87 1.46 0zm4.51 15a.22.22 0 0 0 -.43 0c0 .28.43.28.43.03zm6.77-11.73a.63.63 0 0 0 .4-.07.17.17 0 0 0 0-.3.62.62 0 0 0 -.4-.06.22.22 0 1 0 0 .46zm5.58 32.66a1.22 1.22 0 0 0 -.42-.09.27.27 0 1 0 0 .54 1.22 1.22 0 0 0 .42-.09.2.2 0 0 0 0-.33zm-5.86-22a.94.94 0 0 0 1 .9 2.13 2.13 0 0 0 1-.25 2 2 0 0 0 3.93-.35 1.92 1.92 0 0 0 -2-1.81 2.2 2.2 0 0 0 -1.45.6 1.32 1.32 0 0 0 -2-.32 1.46 1.46 0 0 0 -.48 1.31zm-.14 140.28.29.05a.29.29 0 1 0 0-.55l-.29.05a.23.23 0 0 0 0 .53zm.08-149.91a.37.37 0 0 0 .59 0 .88.88 0 0 0 .12-.21c.42-.83-1.25-.83-.83 0a.88.88 0 0 0 .12.29zm-.08 18.13.29.05a.29.29 0 1 0 0-.56l-.29.05a.24.24 0 0 0 0 .54zm1.58 155.41c0-.65-1.11-.65-1.11 0s1.11.73 1.11.08zm16.74 23.03a3.24 3.24 0 0 0 -.17.32c-.29.66 1.18.67.88 0a1.41 1.41 0 0 0 -.15-.32.34.34 0 0 0 -.56 0zm-.12-85c0 .83 1.4.83 1.4 0s-1.4-.81-1.4 0zm.92 26c0 .46.77.46.77 0s-.77-.49-.77 0zm-3.24-8a.43.43 0 0 0 -.7 0 1.81 1.81 0 0 0 -.27.58c-.29.94 1.52.95 1.23 0a2 2 0 0 0 -.26-.58zm4.33-44.1a.81.81 0 0 0 -.14-.43.36.36 0 0 0 -.58 0 .81.81 0 0 0 -.14.43c-.01.51.93.51.89.01zm-.64 157.89c0-.82-1.4-.82-1.4 0s1.43.84 1.43.01zm-1.84-109.47c0 .67 1.14.67 1.14 0s-1.11-.66-1.11.01zm1.15 133.57c0-.67-1.14-.67-1.14 0s1.14.67 1.14 0zm-.89-92.42c0-1.09-1.86-1.1-1.86 0s1.88 1.1 1.88 0zm4.29-72.78a1.84 1.84 0 0 0 1.9-1.69 1.89 1.89 0 1 0 -1.88 1.72zm.51-107.1.09-.29a.15.15 0 0 0 0-.16.26.26 0 0 0 -.3-.14.25.25 0 0 0 -.29.14.18.18 0 0 0 0 .16l.07.29a.26.26 0 0 0 .45 0zm-22.83 270.05a.72.72 0 0 0 .12.21.36.36 0 0 0 .59 0 .72.72 0 0 0 .12-.21c.42-.83-1.25-.83-.83 0zm22.7-9.87v-.29a.08.08 0 0 0 -.08-.07h-.29a.37.37 0 0 0 -.28.63c.19.19.68.05.65-.27zm1.52-23a1.89 1.89 0 1 0 -1.88 1.72 1.82 1.82 0 0 0 1.88-1.74zm-1.37 28.18.06-.28a.17.17 0 0 0 0-.17.28.28 0 0 0 -.3-.14.28.28 0 0 0 -.29.14.25.25 0 0 0 0 .17c0 .09 0 .18.07.28a.26.26 0 0 0 .46-.02zm-2.93 10.58c0-.46-.77-.46-.77 0s.77.47.77 0zm7.45-275.1c0-.59-1-.59-1 0s1.01.57 1.01 0zm-12.74 80.86a3.86 3.86 0 0 0 .49.1.33.33 0 1 0 0-.62 3.86 3.86 0 0 0 -.49.1.21.21 0 0 0 0 .42zm1.58-78.48a2.21 2.21 0 0 0 -.26-.59.43.43 0 0 0 -.7 0 2 2 0 0 0 -.27.59c-.29.94 1.52.94 1.23 0zm-1.58 210.26a2.66 2.66 0 0 0 .49.1.33.33 0 1 0 0-.62 3.88 3.88 0 0 0 -.49.11.21.21 0 0 0 0 .41zm-13.77 55.34a.57.57 0 0 0 -.4-.07.22.22 0 1 0 0 .43.62.62 0 0 0 .4-.06.17.17 0 0 0 0-.3zm17.19-220.72c0-1.1-1.86-1.1-1.86 0s1.86 1.09 1.86 0zm-16.82 188.73c0 .11.19.11.19 0a.1.1 0 0 0 -.19 0zm21.62-105 .06-.28a.17.17 0 0 0 0-.17.28.28 0 0 0 -.3-.14.28.28 0 0 0 -.29.14.25.25 0 0 0 0 .17c0 .09 0 .19.07.28a.26.26 0 0 0 .46-.05zm-.15-3.39v-.29a.09.09 0 0 0 -.08-.06h-.29a.36.36 0 0 0 -.28.62c.19.15.68.01.65-.3zm-2.13 36.21c0-.49-.84-.49-.84 0s.84.45.84-.05zm-.29 57.5a.84.84 0 0 0 -.14-.43.37.37 0 0 0 -.58 0 .84.84 0 0 0 -.14.43c-.04.46.9.46.86-.05zm-1.92-152.53a2.27 2.27 0 0 0 -.17.31c-.29.67 1.18.67.88 0a1.17 1.17 0 0 0 -.17-.31.34.34 0 0 0 -.54 0zm.56-62.66c0-.67-1.14-.68-1.14 0s1.14.67 1.14 0zm.79 25.86c0 .49.84.49.84 0s-.82-.49-.82 0zm.2-22.22c0-.46-.77-.46-.77 0s.78.46.78 0zm-67-9c.13 0 .4.25.56.31a2.07 2.07 0 0 0 .61.06 2.13 2.13 0 0 0 1.11-.28.3.3 0 0 0 0-.54 2.23 2.23 0 0 0 -1.11-.28 2.07 2.07 0 0 0 -.61.06c-.18.07-.4.3-.56.31a.18.18 0 1 0 .06.32zm-5.72 229.4c0-.63-1.08-.64-1.08 0s1.14.6 1.14-.04zm-7.9-10.5a1.78 1.78 0 0 0 0-.61.26.26 0 0 0 -.51 0 1.56 1.56 0 0 0 0 .61.25.25 0 0 0 .57-.04zm-9.37 21.91.16.13c.94.72 2.13-.37 1.34-1.23l-.14-.15c-.78-.87-2.3.53-1.36 1.25zm17-235.11h-.19a.3.3 0 0 0 -.38.35 1.36 1.36 0 0 0 0 .17c.25.82 1.57-.35.57-.52zm.31 242c0-.28-.47-.28-.47 0s.49.27.49 0zm4.06-43.06c0-2.55-4.33-2.55-4.33 0s4.35 2.55 4.35 0zm-4.94 66.72v.17c.19.85 1.46-.31.53-.49h-.19a.3.3 0 0 0 -.32.32zm2.57-16.83a.71.71 0 0 0 .41-.21.28.28 0 0 0 0-.41.71.71 0 0 0 -.41-.21.44.44 0 1 0 0 .83zm-21-246.26a.21.21 0 0 0 -.29.27.54.54 0 0 0 .38.34c.2.09.38-.08.29-.26s-.1-.24-.38-.35zm54.9 12.83a.64.64 0 0 0 .6 0l.29-.2c.6-.43.07-1.31-.59-1.31s-1.19.88-.59 1.31zm-73.26-7.66c0-.28-.48-.28-.48 0s.48.28.48 0zm-2.14-6a.44.44 0 1 0 0-.84.8.8 0 0 0 -.41.21.29.29 0 0 0 0 .42.68.68 0 0 0 .41.21zm20.13 254c.56.42 1.48.18 1.48-.56s-.92-1-1.48-.56a3.08 3.08 0 0 0 -.27.24.44.44 0 0 0 0 .65 3 3 0 0 0 .27.22zm-2.63-29.86c0-1.12-1.92-1.13-1.92 0s1.92 1.13 1.92 0zm3.11 20.93a.54.54 0 0 0 .37.36c.2.09.4-.09.3-.28a.54.54 0 0 0 -.38-.34c-.22-.08-.4.08-.31.26zm-11.93-247.37a4.38 4.38 0 0 0 .82-.33c.88-.48-.33-1.6-.86-.78a3.48 3.48 0 0 0 -.41.76c-.07.18.2.43.45.35zm52.66 0 .37-.17c.86-.4-.35-1.52-.79-.72l-.19.33c-.23.41.2.79.61.6zm-8.62-6.68v-.26c.11-.63-.93-.64-.82 0v.26a.4.4 0 0 0 .82.04zm21.78 35.75a1.89 1.89 0 1 0 0-3.76 2.35 2.35 0 0 0 -1.31.46h-.07c-.36-.06-.48.25-.36.44a1.72 1.72 0 0 0 -.32 1 2 2 0 0 0 2.06 1.86zm-1 193.71-.07.26c-.15.63 1 .63.83 0l-.07-.26a.37.37 0 0 0 -.69 0zm.06 25.92c0-.74-1.25-.74-1.25 0s1.27.74 1.27-.03zm-20.5-47.53c0-.84-1.42-.84-1.42 0s1.42.84 1.42 0zm23.44-42.2a2 2 0 0 0 -2.06-1.88 2.35 2.35 0 0 0 -1.31.46h-.07c-.36-.05-.48.26-.36.45a1.67 1.67 0 0 0 -.32 1 2.07 2.07 0 0 0 4.12 0zm-31.42 126.62c0 .29.49.29.49 0s-.49-.29-.49 0zm.69-50.62a.51.51 0 0 0 -.23-.36.33.33 0 0 0 -.44 0 .54.54 0 0 0 -.23.36c-.16.7 1.06.7.9 0zm6.17 23.47v.27c.06.33.68.33.74 0v-.27c.19-.63-.85-.63-.74 0zm1.26-42.29a.72.72 0 0 0 -.12-.21.52.52 0 0 0 -.85 0 .57.57 0 0 0 -.13.21c-.51 1.1 1.62 1.1 1.1 0zm-5.56-203.48a3.31 3.31 0 0 0 -.33.15.24.24 0 0 0 0 .43 1.92 1.92 0 0 0 .33.14c.66.28.66-.97 0-.72zm1.4-3.06-.08-.26a.32.32 0 0 0 -.59 0c0 .08-.05.17-.08.26-.19.56.93.56.75-.01zm-34.17 321.23c0-.2-.34-.21-.34 0s.34.2.34 0zm44.42 32.51a.26.26 0 1 0 0-.52 1.12 1.12 0 0 0 -.41.09.18.18 0 0 0 0 .34 1.12 1.12 0 0 0 .41.09zm-1.79 10.43c0 1.64 2.78 1.64 2.78 0s-2.78-1.64-2.78 0zm-2.14-184.56c0 .45.76.45.76 0s-.81-.45-.81 0zm2.14 51c0 1.64 2.78 1.64 2.78 0s-2.78-1.63-2.78 0zm-2.14 82.56c0 .45.76.45.76 0s-.81-.45-.81 0zm4-93a.26.26 0 1 0 0-.52 1.12 1.12 0 0 0 -.41.09.18.18 0 0 0 0 .34 1.12 1.12 0 0 0 .34.1zm-6 156.19-.21-.07c-.55-.29-.55.76 0 .47l.21-.07a.17.17 0 0 0 -.09-.32zm-3.26-137.56.28-.1a.22.22 0 0 0 0-.42l-.28-.1c-.6-.2-.6.88-.09.63zm3.05 86.31c0-.84-1.42-.84-1.42 0s1.33.84 1.33.01zm.21-82.31-.21-.07c-.55-.29-.55.76 0 .47l.21-.07a.17.17 0 0 0 -.09-.32zm-.16 97.26a.72.72 0 0 0 -.12-.21.52.52 0 0 0 -.85 0 .57.57 0 0 0 -.13.21c-.51 1.14 1.62 1.14 1.1 0zm7.72-85.22-.19.34c-.21.37.2.74.61.56l.37-.18c.86-.36-.35-1.5-.79-.68zm13.29 91.84a.37.37 0 0 0 -.69 0l-.07.27c-.15.63 1 .63.83 0-.02-.05-.05-.14-.07-.23zm-1.88 25.93c0 .73 1.25.73 1.25 0s-1.25-.7-1.25.04zm-4.92-198.76a.43.43 0 0 0 .55-.5 1.73 1.73 0 0 0 -.11-.32.68.68 0 0 0 -1.08-.26.57.57 0 0 0 .29 1 2 2 0 0 0 .35.12zm-17.91 48.26c0 .49.84.49.84 0s-.84-.49-.84 0zm26.23 48.07c-.66 0-1.19.88-.59 1.31l.29.2a.64.64 0 0 0 .6 0l.29-.2c.6-.43.07-1.31-.59-1.31zm-1.23 10.88a2.35 2.35 0 0 0 -1.31.46h-.07c-.36-.05-.48.26-.36.45a1.67 1.67 0 0 0 -.32 1 2.07 2.07 0 1 0 2.06-1.91zm-7.28-38.47h-.31a.72.72 0 0 0 -.73.67 2.46 2.46 0 0 1 0 .28c-.08.87 1.2 1.23 1.8.68a1 1 0 0 0 -.79-1.65zm.22 64.88a.43.43 0 0 0 .55-.5 2.13 2.13 0 0 0 -.11-.33.69.69 0 0 0 -1.08-.26.58.58 0 0 0 .29 1 2 2 0 0 0 .32.07zm-5-25.58-.29-.05a.28.28 0 1 0 0 .54l.29-.05a.22.22 0 0 0 -.05-.46zm14.56-23.53-.29-.06a.21.21 0 1 0 0 .4l.29-.06a.14.14 0 0 0 -.05-.3zm-9.76 117.79h-.31a.72.72 0 0 0 -.73.67 2.64 2.64 0 0 1 0 .28c-.08.86 1.2 1.23 1.8.68a1 1 0 0 0 -.81-1.65zm-3.66-370.51c0 .31.53.31.53 0a.27.27 0 0 0 -.53 0zm0 265.34c0 .31.53.31.53 0s-.53-.31-.53 0zm-26.08 25.83c0 .26.44.26.44 0s-.44-.25-.44 0zm1.85 69.69c0 .28.47.28.47 0s-.46-.28-.46 0zm-1.41-203.25c0-.25-.44-.25-.44 0s.45.26.45 0zm.19 85.28a1.5 1.5 0 0 0 -.29-.06.27.27 0 1 0 0 .52l.29-.07a.2.2 0 0 0 .01-.39zm0-265.34-.29-.07a.27.27 0 1 0 0 .52 1.5 1.5 0 0 0 .29-.06.2.2 0 0 0 .01-.39zm-5.32 258.06a4.12 4.12 0 0 0 -.83.37c-.88.48.33 1.6.86.78a3.72 3.72 0 0 0 .41-.76c.09-.23-.18-.47-.43-.39zm-2.92 45.81c0-.42-.72-.43-.72 0s.72.46.72 0zm2.93 87.72a4.12 4.12 0 0 0 -.83.37c-.88.48.33 1.59.86.78a4 4 0 0 0 .41-.76c.08-.2-.19-.44-.44-.36zm-3.66-59.87a1.33 1.33 0 0 0 .13.33.35.35 0 0 0 .57 0 1.92 1.92 0 0 0 .14-.33c.19-.61-1.04-.61-.84.03zm0-133.56a1.33 1.33 0 0 0 .13.33.35.35 0 0 0 .57 0 1.92 1.92 0 0 0 .14-.33c.19-.61-1.04-.61-.84.03zm2.77 156.29a1.78 1.78 0 0 0 0-.61.26.26 0 0 0 -.51 0 1.56 1.56 0 0 0 0 .61.25.25 0 0 0 .51.03zm11.12-29.78c0 .58 1 .58 1 0s-1-.55-1 .03zm6.71 69.76a1.55 1.55 0 1 0 1.69 1.55 1.64 1.64 0 0 0 -1.69-1.52zm-2.12-109.25a1.92 1.92 0 0 0 -.33.14.24.24 0 0 0 0 .43l.33.15c.66.27.66-.94 0-.69zm1.4-3.07-.08-.26a.32.32 0 0 0 -.59 0l-.08.26c-.19.6.93.6.75.03zm-1.21-15.24a2.34 2.34 0 0 0 -1.11-.28 1.79 1.79 0 0 0 -.61.07c-.18.06-.4.29-.56.3a.19.19 0 1 0 0 .37c.13 0 .4.25.56.3a2.08 2.08 0 0 0 .61.07 2.24 2.24 0 0 0 1.11-.29.3.3 0 0 0 0-.54zm-9.08 98.07c0 .64 1.08.64 1.08 0s-1.08-.6-1.08.04zm11-104.07a1.55 1.55 0 1 0 1.69 1.54 1.64 1.64 0 0 0 -1.68-1.54zm.25 128.27.28-.1a.22.22 0 0 0 0-.42l-.28-.1c-.5-.17-.5.87.01.66zm-.51-16.7c0 .49.84.49.84 0s-.83-.45-.83.04zm-9.94-32.22c0 2.55 4.33 2.55 4.33 0s-4.32-2.51-4.32.04zm1.95 49.09a.44.44 0 1 0 0 .84.71.71 0 0 0 .41-.21.29.29 0 0 0 0-.42.85.85 0 0 0 -.41-.21zm1.55-198.17c0 .59 1 .59 1 0s-1-.58-1 0zm2.45 184.22a.36.36 0 0 0 -.44 0 .59.59 0 0 0 -.23.37c-.16.69 1.06.69.9 0a.55.55 0 0 0 -.23-.37zm-.33-70.25a.81.81 0 0 0 .72.28.42.42 0 0 0 .42-.38.7.7 0 0 0 -.31-.66c-.5-.48-1.34.28-.79.76zm42.77 49.07c0 .19.32.19.32 0s-.28-.19-.28 0zm14.84-162.16c0 .89 1.52.89 1.52 0s-1.48-.9-1.48 0zm0 133.56c0 .89 1.52.89 1.52 0s-1.48-.9-1.48 0zm2.39-38a.63.63 0 0 0 -.45 0 .25.25 0 0 0 0 .48.69.69 0 0 0 .45 0 .23.23 0 0 0 .04-.49zm-2.35-227.35c0 .9 1.52.9 1.52 0s-1.52-.89-1.52 0zm4.88 286.75-.49.1a.21.21 0 0 0 0 .42 3.86 3.86 0 0 0 .49.1.33.33 0 1 0 0-.62zm-2.49-324.75a.69.69 0 0 0 -.45 0 .25.25 0 0 0 0 .49.69.69 0 0 0 .45 0 .22.22 0 0 0 0-.49zm0 131.78a.69.69 0 0 0 -.45 0 .25.25 0 0 0 0 .48.63.63 0 0 0 .45 0 .23.23 0 0 0 0-.48zm-9 143.42a.67.67 0 1 0 0 1.27c.87-.14.87-1.12.01-1.27zm.66 93.62c0 .16-.07.12-.22.18-.66.25-.09 1.22.57.9a.73.73 0 0 0 .28-1.26.37.37 0 0 0 -.62.18zm-.06-68.72a.56.56 0 0 0 0-.81 1.54 1.54 0 0 0 -.32-.25.8.8 0 1 0 0 1.31 1.54 1.54 0 0 0 .33-.25zm12-53.31a2.21 2.21 0 0 0 -.26-.59.43.43 0 0 0 -.7 0 2 2 0 0 0 -.27.59c-.31.94 1.5.94 1.21 0zm-11.72 94.6c0 .93 1.57.93 1.57 0s-1.59-.93-1.59 0zm2.18-21.11c0 .5.85.5.85 0s-.87-.5-.87 0zm-.77 35.56c0 .72 1.23.72 1.23 0s-1.23-.73-1.23 0zm.8-169.12a.43.43 0 0 0 .85 0c-.05-.5-.9-.5-.9 0zm17.09-186.83-.55-.07c-.37-.05-.87.15-.83.58l.05.42a1.08 1.08 0 0 0 1.69.76.94.94 0 0 0 -.36-1.69zm1.4 302.49c0 1.27 2.17 1.28 2.17 0s-2.17-1.27-2.17 0zm-20.68 30.68a.86.86 0 0 1 -.39.09.12.12 0 1 0 0 .24.66.66 0 0 1 .39.09c.5.29.5-.72 0-.42zm21.84-88.64c0 .59 1 .59 1 0s-1-.6-1 0zm-1.16-207.38c0 1.27 2.17 1.27 2.17 0s-2.17-1.28-2.17 0zm-1.4 94.6-.55-.07c-.37-.05-.87.14-.83.57 0 .14 0 .28.05.42a1.07 1.07 0 0 0 1.69.76.93.93 0 0 0 -.36-1.68zm-179.66 88.7a.67.67 0 0 0 -.44 0 .23.23 0 0 0 0 .44.61.61 0 0 0 .44 0 .24.24 0 0 0 0-.44zm172 71.33c0 1.09 1.86 1.1 1.86 0s-1.82-1.1-1.82-.03zm10.18-180.81c0 .59 1 .59 1 0s-.96-.59-.96 0zm-8.13 249.14c0 .83 1.4.83 1.4 0s-1.36-.82-1.36 0zm.83-46.5a1.59 1.59 0 0 0 -.17-.31.34.34 0 0 0 -.54 0c-.07.11-.11.2-.17.31-.23.67 1.22.67.92 0zm4.74-48.27-.55-.07c-.37 0-.87.15-.83.58 0 .14 0 .28.05.42a1.07 1.07 0 0 0 1.69.76.94.94 0 0 0 -.32-1.69zm-4.25 68.23a.84.84 0 0 0 -.14.43c0 .5.9.51.86 0a.84.84 0 0 0 -.14-.43.37.37 0 0 0 -.54 0zm2.78 13.77a1.73 1.73 0 1 0 1.88 1.72 1.84 1.84 0 0 0 -1.84-1.72zm-2.61-70.84c0 .49.84.49.84 0s-.8-.49-.8 0zm2.9 95.25h-.29a.36.36 0 0 0 -.28.62c.22.21.71.07.68-.25v-.29a.08.08 0 0 0 -.11-.08zm-22.26-105.52h-.29a.23.23 0 0 0 0 .45h.29a.29.29 0 1 0 0-.45zm-7.94 101.39-.35-.21c-.21-.13-.49.13-.35.32s.16.21.23.32c.31.42.94-.15.47-.43zm-2.3-359.46a1.24 1.24 0 0 0 -.38.09.14.14 0 0 0 0 .26 1 1 0 0 0 .38.09.22.22 0 1 0 0-.44zm1.22 254h-.31c-.28 0-.28.43 0 .4h.31a.17.17 0 1 0 0-.39zm0-265.34h-.31c-.28 0-.28.43 0 .4h.31a.17.17 0 1 0 0-.39zm1.08 237.23-.35-.21c-.21-.13-.49.13-.35.32l.23.32c.31.43.94-.13.47-.42zm1.3 25.19a.22.22 0 0 0 -.43 0 .22.22 0 0 0 .43.01zm-4.62 94.91a.61.61 0 0 0 -1 0l-.07.1c-.28.38.09.9.56.9s.85-.52.57-.9zm5-13.07a.53.53 0 0 0 -.54.49 1.13 1.13 0 0 0 .72 1c.58.34 1.31-.33.94-.87a1.24 1.24 0 0 0 -1.07-.61zm-4.94-96.87c0-.86-1.46-.86-1.46 0s1.51.87 1.51.01zm-4.76-256.53-.29-.05a.21.21 0 1 0 0 .4l.29-.06a.15.15 0 0 0 0-.29zm5.72 152.27a1 1 0 0 0 -.38.09.14.14 0 0 0 0 .25.85.85 0 0 0 .38.09.22.22 0 1 0 0-.43zm-.79 169.6a1.57 1.57 0 0 0 -.61 0c-.74.12-.17 1.29.47.75a1.08 1.08 0 0 0 .31-.37.27.27 0 0 0 -.17-.38zm.79-36a1 1 0 0 0 -.38.09.14.14 0 0 0 0 .25 1 1 0 0 0 .38.09.22.22 0 1 0 0-.47zm-.56 20.75a.55.55 0 0 0 -.52.82.57.57 0 0 0 1 0 .55.55 0 0 0 -.48-.86zm4.59-86.73a.53.53 0 0 0 -.54.49 1.13 1.13 0 0 0 .72 1c.58.34 1.31-.33.94-.86a1.23 1.23 0 0 0 -1.12-.67zm11.92 72.65a1.22 1.22 0 0 0 -.42-.09.27.27 0 1 0 0 .54 1.22 1.22 0 0 0 .42-.09.2.2 0 0 0 0-.4zm-4.81 68.53a.1.1 0 0 0 .19 0c0-.14-.19-.14-.19 0zm4.91-90.18a1.93 1.93 0 0 0 -2-1.82 2.2 2.2 0 0 0 -1.45.6 1.31 1.31 0 0 0 -2-.31 1.44 1.44 0 0 0 -.56 1.22 1 1 0 0 0 1 .91 2.38 2.38 0 0 0 1-.25 2 2 0 0 0 3.93-.35zm-9 45.71c0 .33.57.34.57 0s-.57-.37-.57-.03zm3.37-13.89c0 .65 1.11.65 1.11 0s-1.11-.64-1.11-.03zm-3.37-119.67c0 .34.57.34.57 0s-.57-.36-.57-.03zm-.4-163.25-.21.06a1.49 1.49 0 0 0 -.31-.2c-.78-.36-1.27.8-.46 1a1 1 0 0 0 .69-.07.42.42 0 0 0 .25-.38c0 .14-.05.1.06 0a1 1 0 0 0 .19-.27c.07-.14-.1-.26-.21-.17zm0 265.35h-.21a1.44 1.44 0 0 0 -.31-.19c-.78-.37-1.27.79-.46 1a1 1 0 0 0 .69-.06.44.44 0 0 0 .25-.39c0 .14-.05.11.06 0a.74.74 0 0 0 .19-.27c.07-.1-.1-.22-.21-.16zm-1-74.29c0-.19-.32-.19-.32 0s.3.16.3-.03zm1-59.27-.21.05a1.44 1.44 0 0 0 -.31-.19c-.78-.36-1.27.79-.46 1a1 1 0 0 0 .69-.06.44.44 0 0 0 .25-.39c0 .15-.05.11.06 0a.79.79 0 0 0 .19-.26.13.13 0 0 0 -.21-.18zm28.47 29.7c0 1.28 2.17 1.28 2.17 0s-2.17-1.3-2.17-.03zm-143.35 149a1.4 1.4 0 0 0 -.35-.1.43.43 0 0 0 -.55.5 1.21 1.21 0 0 0 .11.32.67.67 0 0 0 1.08.26.57.57 0 0 0 -.29-1.06zm-6.52-330.72c0 .74 1.25.74 1.25 0s-1.25-.74-1.25 0zm6.81 198.07a.58.58 0 0 0 -.29-1 2 2 0 0 0 -.35-.1.43.43 0 0 0 -.55.5 1.42 1.42 0 0 0 .11.33.68.68 0 0 0 1.08.27zm-14.82 139.53a.57.57 0 0 0 -1 0 .55.55 0 0 0 .51.82.55.55 0 0 0 .49-.82zm13.66-342.73a1 1 0 0 0 .74 1.64h.31a.72.72 0 0 0 .73-.67 1.23 1.23 0 0 1 0-.27c.15-.88-1.18-1.25-1.78-.7zm3.82 372.14c0 .31.53.31.53 0s-.53-.31-.53 0zm-10.36-13.83a1.89 1.89 0 1 0 0 3.77 2.32 2.32 0 0 0 1.3-.46h.08c.36.05.48-.26.36-.45a1.76 1.76 0 0 0 .31-1 2 2 0 0 0 -2.05-1.86zm-2.19 26.13-.29.06a.14.14 0 0 0 0 .28l.29.06a.21.21 0 1 0 0-.4zm1.23-13a.64.64 0 0 0 -.6 0l-.29.2c-.6.43-.07 1.3.59 1.3s1.19-.87.59-1.3zm16.55-347a.2.2 0 0 0 0-.35 1 1 0 0 0 -.41-.08.26.26 0 1 0 0 .52 1.16 1.16 0 0 0 .41-.06zm-1.35-10.8c0 1.64 2.78 1.64 2.78 0s-2.78-1.68-2.78 0zm4.16 182.79c0 .45.76.45.76 0s-.76-.49-.76-.04zm0 133.56c0 .44.76.45.76 0s-.76-.49-.76-.04zm-5.27 57.35-.37.18c-.86.4.35 1.51.79.72.07-.11.13-.23.19-.34a.43.43 0 0 0 -.61-.56zm-.77-26.58-.28.05a.22.22 0 0 0 0 .44l.28.05c.49.06.5-.61 0-.54zm-19.65 32.88c0 .86 1.46.86 1.46 0s-1.46-.91-1.46 0zm-10.94-4.44a.37.37 0 0 0 -.59 0 .94.94 0 0 0 -.12.22c-.42.83 1.25.83.83 0a.94.94 0 0 0 -.12-.22zm-.06-9.62a1 1 0 0 0 -1-.91 2.38 2.38 0 0 0 -1 .25 2 2 0 0 0 -1.94-1.47 1.83 1.83 0 1 0 0 3.64 2.2 2.2 0 0 0 1.45-.6 1.31 1.31 0 0 0 2 .31 1.44 1.44 0 0 0 .49-1.22zm.14-8.5-.29-.05a.29.29 0 1 0 0 .55l.29-.05a.23.23 0 0 0 0-.45zm-.38 19.21a.62.62 0 0 0 -.4.06.17.17 0 0 0 0 .3.57.57 0 0 0 .4.07.22.22 0 1 0 0-.43zm2.75-190.29c0 .34.57.34.57 0s-.61-.36-.61 0zm0 133.56c0 .33.57.33.57 0s-.61-.34-.61 0zm-14-132.77c0 .9 1.52.9 1.52 0s-1.61-.89-1.61 0zm21.58 163.08a.22.22 0 1 0 0 .43 1 1 0 0 0 .38-.09.14.14 0 0 0 0-.25.85.85 0 0 0 -.38-.09zm-22.1-257.32a.67.67 0 0 0 -.44 0 .22.22 0 0 0 0 .43.67.67 0 0 0 .44 0 .25.25 0 0 0 0-.43zm6.32 175.31c0-.72-1.24-.73-1.24 0s1.24.78 1.24 0zm-5.89-212.85c0 .89 1.52.89 1.52 0s-1.52-.9-1.52 0zm5.72 288.63a1.22 1.22 0 0 0 .42.09.27.27 0 1 0 0-.54 1.22 1.22 0 0 0 -.42.09.2.2 0 0 0 0 .36zm-1.48-40.22c0 .5.85.5.85 0a.43.43 0 0 0 -.85 0zm-4.24 16.93c0 .9 1.52.9 1.52 0s-1.52-.89-1.52 0zm16 29.83a1 1 0 0 0 -.7.06.44.44 0 0 0 -.24.39c0-.15.05-.11-.06 0a.79.79 0 0 0 -.19.26c-.08.13.1.25.21.15l.21-.05a1.44 1.44 0 0 0 .31.19c.8.34 1.27-.81.46-1zm3.84-359.76c-.31-.43-.94.14-.47.42l.35.21c.21.13.49-.12.35-.32zm.92 370.85h-.31a.17.17 0 1 0 0 .33h.31c.28.1.28-.36 0-.33zm-4.42-203.08c0-.19-.32-.19-.32 0s.32.19.32 0zm0 133.56c0-.19-.32-.19-.32 0s.32.19.32 0zm1.71 72.81a.22.22 0 0 0 .43 0 .22.22 0 0 0 -.41 0zm-.61-83.36c-.58-.34-1.31.33-.94.86a1.23 1.23 0 0 0 1.12.66.53.53 0 0 0 .54-.49 1.13 1.13 0 0 0 -.7-1.03zm59.1-112.27a1.07 1.07 0 0 0 .11-.33.39.39 0 1 0 -.78 0 1.07 1.07 0 0 0 .11.33.35.35 0 0 0 .58 0zm5.26 100.56-.16-.13c-.94-.72-2.13.37-1.34 1.23l.13.15c.83.9 2.35-.52 1.39-1.25zm-4.11-83.24c0-.2-.34-.2-.34 0s.36.2.36 0zm.69 162.72c0 1.13 1.92 1.13 1.92 0s-1.9-1.13-1.9 0zm4.57 28.73a3.08 3.08 0 0 0 -.27.24.44.44 0 0 0 0 .65 3 3 0 0 0 .27.23c.56.42 1.48.18 1.48-.56s-.9-.97-1.46-.56zm-7.9-197.41a.35.35 0 0 0 -.57 0 1.92 1.92 0 0 0 -.14.35c-.19.64 1 .64.84 0a1.33 1.33 0 0 0 -.13-.35zm.12 28.18c0-.42-.73-.43-.73 0s.73.42.73 0zm.53-12.64c0 1.28 2.17 1.28 2.17 0s-2.17-1.28-2.17 0zm.86 106.66a1.07 1.07 0 0 0 .11-.33.39.39 0 1 0 -.78 0 1.07 1.07 0 0 0 .11.33.35.35 0 0 0 .56 0zm-.86 26.9c0 1.28 2.17 1.28 2.17 0s-2.17-1.28-2.17 0zm13.64-164.64c0 1.27 2.17 1.28 2.17 0s-2.17-1.28-2.17 0zm0 133.56c0 1.27 2.17 1.28 2.17 0s-2.17-1.28-2.17 0zm-5.88 71.59c.11.23.13.24.37.36a.21.21 0 0 0 .3-.28.54.54 0 0 0 -.38-.34c-.23-.08-.41.08-.32.26zm7.19-44.69a1.46 1.46 0 0 0 -.12.33c-.09.6.89.61.79 0a1.07 1.07 0 0 0 -.11-.33.35.35 0 0 0 -.59 0zm-1.15-17.32c0 .2.34.2.34 0s-.37-.2-.37 0zm1.84-115.91a1.07 1.07 0 0 0 -.11-.33.35.35 0 0 0 -.56 0 1.46 1.46 0 0 0 -.12.33c-.14.6.84.66.79 0zm-1.48-17.65c0-.2-.34-.2-.34 0s.29.21.29 0zm-5.6-190.8c-.56-.41-1.48-.17-1.48.56s.92 1 1.48.56a3 3 0 0 0 .27-.23.44.44 0 0 0 0-.65zm2.51 373.43c-.8-.88-2.32.51-1.36 1.25l.16.13c.94.72 2.13-.37 1.34-1.23zm.14-78.23c0 1.12 1.92 1.13 1.92 0s-1.97-1.09-1.97 0zm-35.29 101.29v.27c-.11.63.93.63.82 0v-.27c-.1-.33-.76-.33-.82 0zm5.07-19.3a2 2 0 0 0 .34-.14.25.25 0 0 0 0-.44l-.34-.14c-.65-.24-.65.97 0 .72zm2.1 17.84c-.13 0-.4-.25-.56-.3a2.08 2.08 0 0 0 -.61-.07 2.31 2.31 0 0 0 -1.11.28.3.3 0 0 0 0 .54 2.24 2.24 0 0 0 1.11.29 1.79 1.79 0 0 0 .61-.07c.18-.06.39-.29.56-.3a.19.19 0 1 0 0-.37zm-.22-373.71a.53.53 0 0 0 .22.37.35.35 0 0 0 .45 0 .53.53 0 0 0 .22-.37c.17-.68-1.06-.69-.89 0zm-3.23 358.94a2.58 2.58 0 0 1 .08.26.32.32 0 0 0 .59 0l.08-.26c.14-.57-.97-.58-.75 0zm3.11-23.25a.41.41 0 0 0 -.42.38.71.71 0 0 0 .31.66c.52.5 1.37-.28.83-.77a.84.84 0 0 0 -.76-.27zm.36 12.6c0 .29.49.29.49 0s-.53-.29-.53 0zm-7.49-49.14c0 .84 1.42.84 1.42 0s-1.46-.84-1.46 0zm0-133.56c0 .84 1.42.84 1.42 0s-1.46-.8-1.46 0zm15.55 28.31c0-.26-.44-.26-.44 0s.4.25.4 0zm-6.53 122.48c0 .58 1 .58 1 0s-1-.59-1 0zm14.14 20.8c0 .42.73.42.73 0s-.77-.39-.77 0zm-7.61-9.72c0-.26-.44-.26-.44 0s.4.25.4 0zm-2 40.52h.19a.3.3 0 0 0 .38-.35v-.17c-.28-.82-1.55.33-.62.52zm1.67 7.3a1.37 1.37 0 0 0 -.29.07.19.19 0 0 0 0 .38 1 1 0 0 0 .29.07.27.27 0 1 0 -.05-.52z"/><path d="m168.06 206.85a15.8 15.8 0 0 0 -15.56 4.15 19.24 19.24 0 0 0 -5 15.59 13.26 13.26 0 0 0 1.17 4.33 11.78 11.78 0 0 0 3.54 4.14 15.28 15.28 0 0 0 10.23 3 16.9 16.9 0 0 0 11.84-6.51 21 21 0 0 0 4.24-13c0-4.22-2.45-8.14-4.67-9.35z" fill="#e27ae2"/><path d="m159.38 208.48a.91.91 0 0 0 -.87-.61c-9.17-.26-15.91 7.71-14.92 16.75.88 8 8.11 12.29 15.72 11.84 8-.47 15.19-5.89 15.37-14.34s-7.34-14.25-15.3-13.64zm2.93 25.52a.9.9 0 0 1 .58-.16zm2.83-1a1.28 1.28 0 0 0 -.15-.25 2.89 2.89 0 0 0 -4.82 1 .87.87 0 0 0 0 .62l-.88.09c-4.78.3-9.85-1.47-12.31-5.58a3.29 3.29 0 0 0 -1-5.91 1 1 0 0 0 -.51 0 13 13 0 0 1 11.71-13.07 3 3 0 0 0 4.76.62c5.43.62 10.25 4.48 10.66 10.35.4 5.65-2.84 9.97-7.46 12.13z"/><path d="m152.92 216.28h-.25a1 1 0 0 0 0 2h.25a1 1 0 0 0 0-2z"/><path d="m168.17 215.53a1 1 0 0 0 0 2 1 1 0 0 0 0-2z"/><path d="m156.67 224a1 1 0 0 0 0 2 1 1 0 0 0 0-2z"/><path d="m161.92 219a1 1 0 0 0 0 2 1 1 0 0 0 0-2z"/><path d="m127.07 304.28c-6.46-15.84-21.35-47.13-43.5-39.2a1 1 0 0 0 -.24.14q-4.78-9.33-9.59-18.65c-3.22-6.26-6.35-12.58-9.66-18.8-2-3.73-4-6.77-7.61-9.09-9.69-6.23-21.11-7.24-29.15-16.36-1-1.11-2.48.09-2.23 1.28 0 .07-.07.11-.08.19-2.17 10-5.3 20.36-6.25 30.59-.87 9.37 2.46 19.27 5.35 28.05a161.49 161.49 0 0 0 11.56 26.66c.59 1.08 1.2 2.24 1.84 3.44-11.85 19.16 4.49 43.47 12.56 60.9.62 1.34 2.42.51 2.53-.68q1.6-18.37 2.71-36.77c2.11 4.13 4 8.79 8.57 9.81.27.06.55.1.82.14a16.38 16.38 0 0 0 13.82 5.88c4.57 12.59 17.89 17 27.82 24.69.91.71 2.41-.47 2-1.53-4.57-11.55-5-24.28-10.89-35.36l-.07-.08c2.36-4.26 3.19-9.08.52-13 1.84-4.63-1.48-9-3.66-13.86l30.85 13.13c.91.41 2.49-.28 1.98-1.52zm-66.34-77c3.12 5 5.54 10.74 8.25 16l15.71 30.55c3.36 6.54 10.4 15.25 4.58 22.19a24.41 24.41 0 0 1 -1.72 1.81 1.66 1.66 0 0 0 -.06-.21c-12.09-24.09-23.74-48.5-34.89-73 1.29-.71 2.57-1.46 3.84-2.22a19.58 19.58 0 0 1 4.29 4.83zm2.18 83c-16.06-21.77-29.67-48.72-35.39-75.33 2.3-.67 4.58-1.38 6.83-2.18 0 4.44 2.89 9.91 4.24 13.75 2.55 7.25 5.15 14.5 8.06 21.61 5.9 14.42 15.22 26.72 22.15 40.48a52.62 52.62 0 0 1 -5.89 1.63zm8.43-2.63c-6.74-13.56-15.91-25.65-21.84-39.65-2.53-6-4.68-12.14-6.88-18.24-1.27-3.52-2.53-7.05-3.68-10.61-.6-1.87-2.18-4.93-1.9-6.92a1.58 1.58 0 0 0 0-.44c2.2-.84 4.38-1.72 6.53-2.69a273.33 273.33 0 0 0 17.74 46.24c4.88 10.02 10.56 19.66 15.6 29.66l-.53.28c-1.63.87-3.32 1.64-5.04 2.33zm7.93-3.89c-4.75-9.45-10.11-18.59-14.8-28.08a271 271 0 0 1 -18.47-47.8c1.41-.67 2.8-1.36 4.18-2.09q16.77 36.89 34.97 73.21a1.18 1.18 0 0 0 .49.52 48.35 48.35 0 0 1 -6.37 4.2zm-25.27-83.16c-1.07.63-2.14 1.24-3.23 1.84a1.46 1.46 0 0 0 -.82.43 118.1 118.1 0 0 1 -15.46 6.93c0-.31 0-.62 0-1 0-1.68.15-3.32.3-5a.05.05 0 0 0 -.1 0c-.36 1.64-.71 3.26-1.2 4.87a11.94 11.94 0 0 0 -.43 1.59c-.8.28-1.61.55-2.42.81.05-.6 0-1.22.05-1.83.06-1.5.26-3 .39-4.5 0-.06-.09-.07-.1 0-.28 1.47-.51 3-.87 4.43a19.06 19.06 0 0 0 -.53 2.27c-.76.24-1.52.45-2.28.67.25-1.66.15-3.39.27-5.06.17-2.39.48-4.78.77-7.16 0-.06-.1-.07-.11 0-.42 2.36-.82 4.75-1.37 7.08a37.52 37.52 0 0 0 -1.31 5.67c-1.37.38-2.75.73-4.13 1.07a99.11 99.11 0 0 1 3.29-17.46.7.7 0 0 0 .14 0 17.46 17.46 0 0 0 10.23-3.25 1.56 1.56 0 0 0 .53-.78 105.5 105.5 0 0 0 11.73 5.25 44 44 0 0 1 6.66 3.13zm-27.35-11.91c0 .16.09.32.12.47l-.27.12zm.71-2.43h-.14v-.13zm2.5 64.1c-3.76-9.5-7.58-20.1-8.44-30.35-.1-1.14-.13-2.3-.12-3.47 1.21-.29 2.42-.58 3.61-.9 5.69 26.44 19.16 53.36 35.09 75.11a10.57 10.57 0 0 1 -5.16-.65l-.1-.12a1.08 1.08 0 0 0 -1-.42c-3.92-2.19-6.41-6.79-9.15-11q-2-3.07-3.88-6.26a1.24 1.24 0 0 0 -.58-1 157.59 157.59 0 0 1 -10.27-20.94zm20.45 77.34c-7.84-15.7-19.91-36.01-11.31-52.35.59 1.11 1.22 2.23 1.86 3.36-2.9 3.7-2.63 10-1.72 14.25a85.17 85.17 0 0 0 5.91 17.35 0 0 0 0 0 0 0c-1.63-5.48-3.83-10.53-4-16.34a50.45 50.45 0 0 1 .2-7.87c.21-1.68.71-3.33 1-5a63.89 63.89 0 0 0 3.65 5.41 15.27 15.27 0 0 0 -.88 4.06 32.77 32.77 0 0 0 0 6.86 0 0 0 0 0 .06 0c.25-2.38.8-4.67 1.26-7 .16-.85.43-1.69.62-2.54a30.73 30.73 0 0 0 2.61 2.81c-1 1.78-.82 4-1 6-.33 2.82-.75 5.66-.87 8.49 0 .07.1.08.11 0 .66-2.78 1.12-5.59 1.75-8.38.38-1.71 1.13-3.44 1.18-5.18l.34.3a8.64 8.64 0 0 0 1.69 1q-1 17.43-2.46 34.77zm13-25.54a22.13 22.13 0 0 0 3.57-1.33c2.34-.94 4.73-1.73 7-2.87v-.08a51.5 51.5 0 0 1 -6.75 2.06c-1.73.32-3.58.23-5.2.87a23.4 23.4 0 0 1 -2.14-2.8c5.22.07 10.23-1.78 14.83-4.33a0 0 0 0 0 0-.08c-5.17 2-10.46 2.37-15.9 2.69-.48-.79-1-1.58-1.4-2.35 4.81.12 10.26-2 14.06-3.42 7.37-2.8 16.25-7.45 21-14 .14-.19.25-.38.37-.58.5 1.09 1 2.19 1.43 3.29-2.32 1-4 3.38-5.88 5a58.69 58.69 0 0 1 -8.72 5.84s0 .08 0 .07a38.94 38.94 0 0 0 9.06-4.63c2-1.4 4.78-3 5.86-5.35l.13.36c.17.48.3.91.42 1.31-1.37 1.25-2.41 3.08-3.71 4.42a25.9 25.9 0 0 1 -5.42 4.24 0 0 0 0 0 0 .07 26.07 26.07 0 0 0 5.94-3.74 16.73 16.73 0 0 0 3.44-3.73c.43 2.43-.42 3.59-2.77 6.21a43 43 0 0 1 -12.18 9.5c-3.89 2-9.94 5-14.51 4.46a1 1 0 0 0 -.79-.17 5.84 5.84 0 0 1 -1.7-.93zm5.23 3.78c4.64-.55 9.56-2.86 13.21-4.78a44.83 44.83 0 0 0 14.47-12c3.15 7.2-6.16 16.08-11.93 18.48s-11.29 1.98-15.71-1.7zm35.75 25.83c-8.69-5.75-19.14-10.25-23.06-20.34.68-.14 1.37-.3 2-.51a11.51 11.51 0 0 0 2.75 5 14.85 14.85 0 0 0 7.71 5.2s.07 0 0-.08a23.2 23.2 0 0 1 -6.29-6.24c-.9-1.42-1.33-3.17-2.15-4.63.8-.32 1.6-.7 2.4-1.11a9.28 9.28 0 0 0 3.28 5.18s.09 0 .07-.06a19.62 19.62 0 0 1 -2.18-5.76 21.57 21.57 0 0 0 2.22-1.57 25.92 25.92 0 0 1 1.26 3.2c0 .07.16.06.15 0a15 15 0 0 0 -.92-3.59c.57-.48 1.13-1 1.67-1.56a10.94 10.94 0 0 1 1.18 2.7 45.54 45.54 0 0 1 .67 6.39 13.58 13.58 0 0 0 2.95 7.8s.08 0 .05 0c-3.3-5.53-.48-12.52-3.44-18.21.38-.45.75-.91 1.1-1.39 4.54 9.29 5.5 19.75 8.62 29.58zm-9.92-61.88a13.6 13.6 0 0 0 -.29-2.1c3 1 6 1.77 9 2.71a0 0 0 0 0 0-.06c-3.19-1.47-6.3-3.17-9.56-4.5a36.78 36.78 0 0 0 -2.24-5.1 32 32 0 0 0 4.95 1.59 36.58 36.58 0 0 1 11.13 5.12s0 0 0 0a31.61 31.61 0 0 0 -9-6.15c-2.7-1.33-5.63-3.56-8.73-3.66l-2.3-4.48c4.39 1.9 9.22 2.88 13.52 5.1 5.07 2.61 8.1 6.27 11.64 10.58 0 .05.11 0 .08 0-2.66-4.25-6-9.28-10.1-12.22a30.23 30.23 0 0 0 -7.29-3.44c-2.94-1.07-6-2.29-9.16-2.5-.52-1-1-2.05-1.58-3.08 18.85-6.45 32.19 19.23 38.69 34.5l-28.47-12.26a.79.79 0 0 0 -.25-.05z"/><path d="m75.7 263.27a.24.24 0 0 0 .41-.23c-2-4.36-4.28-8.54-6.63-12.69s-5.39-8.22-7.06-12.65c0-.08-.15 0-.13 0 1.16 4.16 3.81 8.12 5.78 11.94 2.38 4.65 4.81 9.27 7.63 13.63z"/><path d="m82.55 278.24a87.7 87.7 0 0 0 -5-10.8 0 0 0 0 0 0 0c1.65 3.6 3.06 7.3 4.71 10.9a.16.16 0 0 0 .29-.1z"/><path d="m86.29 287.3-1.81-3.61c0-.05-.09 0-.07.05l1.77 3.63c.03.07.14.01.11-.07z"/><path d="m53.66 239.52c4.23 15.67 12.76 29.48 17.72 44.88a.17.17 0 0 0 .32-.09c-4.24-15.7-12.1-29.74-17.93-44.81a.06.06 0 0 0 -.11.02z"/><path d="m73.81 286.78c.72 1.39 1.39 2.82 2.18 4.18a.07.07 0 0 0 .12-.07c-.68-1.41-1.48-2.77-2.24-4.15-.02-.04-.08 0-.06.04z"/><path d="m54.19 268.37a324.59 324.59 0 0 1 -12.12-32.79 0 0 0 1 0 -.09 0 144.66 144.66 0 0 0 10.66 32.28c4.87 10.6 10.36 21.14 17.42 30.44.15.2.47 0 .34-.19-5.74-9.76-11.6-19.38-16.21-29.74z"/><path d="m63.68 303.39a414.77 414.77 0 0 1 -24.55-46.19s-.09 0-.07 0a291.86 291.86 0 0 0 24.11 46.46c.21.34.72.06.51-.27z"/><path d="m44.29 274.75s-.07 0 0 0a26.34 26.34 0 0 0 3.46 6.28c.11.14.33 0 .24-.18-1.29-2.01-2.64-3.94-3.7-6.1z"/><path d="m36.13 277c-2.78-6-5.73-11.76-7.82-18-2-5.91-3-11.93-4.41-18a.07.07 0 0 0 -.14 0c.36 6.31 2.14 12.73 4.15 18.69a74.71 74.71 0 0 0 8 17.45.13.13 0 0 0 .22-.14z"/><path d="m81.55 313.32a.18.18 0 0 0 -.26-.26 11.33 11.33 0 0 1 -3.77 2.53s0 .1 0 .08a9.43 9.43 0 0 0 4.03-2.35z"/><path d="m88.38 320.48c.08 0 0-.14-.06-.11a11.65 11.65 0 0 0 -3.32 2.36 0 0 0 1 0 .07.07 22.07 22.07 0 0 1 3.31-2.32z"/><path d="m101 346.87c-.36-1.42-.63-2.85-1.09-4.24-.1-.29-.56-.17-.47.13.4 1.41 1 2.76 1.49 4.13.07.04.12.03.07-.02z"/><path d="m98.82 338.49s0 0 0 0c-.17-.71-.37-1.4-.5-2.13s-.16-1.45-.37-2.15c0-.14-.29-.16-.32 0a6.41 6.41 0 0 0 1.19 4.28z"/><path d="m92.87 332.46a27.72 27.72 0 0 0 .53 4.54s.09 0 .09 0a27.76 27.76 0 0 0 -.21-4.56c-.05-.27-.4-.21-.41.02z"/><path d="m45.62 319.84c-.62.27-.61 1.25-.61 1.84a5.25 5.25 0 0 0 .55 2.19c0 .12.22.05.22-.06 0-.72.12-1.42.21-2.13.07-.55.4-1.25 0-1.73a.32.32 0 0 0 -.37-.11z"/><path d="m42.4 308.8c0 1.22.09 2.46.15 3.68a0 0 0 1 0 0 0c.06-1.22.14-2.46.15-3.68a.17.17 0 0 0 -.3 0z"/><path d="m49.08 328.42a18.64 18.64 0 0 0 -.71 10.38.08.08 0 0 0 .16 0 59.93 59.93 0 0 1 .89-10.27.18.18 0 0 0 -.34-.11z"/><path d="m105.37 290.13c-.63-.23-.87.74-.27 1 3.39 1.35 6.81 2.63 10.23 3.9 0 0 .07-.05 0-.08a54.63 54.63 0 0 0 -9.96-4.82z"/><path d="m99 285.91a20.16 20.16 0 0 0 4.28 1.56s0 0 0-.05a20.65 20.65 0 0 0 -4.13-1.91c-.24-.08-.41.3-.15.4z"/><path d="m113.69 289.64c-.17-.06-.25.16-.16.27a11 11 0 0 0 2.69 1.79s0 0 0 0a11.23 11.23 0 0 0 -2.53-2.06z"/><path d="m91.3 269a.21.21 0 0 0 -.11.4c4 1.49 8.08 2.67 12 4.34a0 0 0 0 0 0 0 34.32 34.32 0 0 0 -11.89-4.74z"/><path d="m36.09 217.25a8.55 8.55 0 0 0 2.46 1.44 5.77 5.77 0 0 0 2.53.71.22.22 0 0 0 .11-.41 9.61 9.61 0 0 0 -2.38-.91 27.6 27.6 0 0 0 -2.62-1 .1.1 0 0 0 -.1.17z"/><path d="m40.12 221.29c-.56-.07-1.12-.26-1.68-.37a.12.12 0 0 0 -.07.23c.53.21 1.11.37 1.62.62a.26.26 0 1 0 .13-.48z"/><path d="m45.66 220.78a.15.15 0 1 0 .12-.28c-.4-.17-.83-.3-1.24-.44a.07.07 0 0 0 0 .13c.34.2.72.41 1.12.59z"/><path d="m50.88 233.1a3.55 3.55 0 0 1 -.44-1.23 0 0 0 0 0 -.09 0 2.52 2.52 0 0 0 1 2.35.17.17 0 0 0 .23-.24c-.19-.32-.5-.55-.7-.88z"/><path d="m59.72 230.35c-.36-1.39-.94-2.76-1.41-4.12 0-.08-.15 0-.12 0 .38 1.39.69 2.84 1.19 4.19a.18.18 0 0 0 .34-.07z"/><path d="m111.23 227.42c-1.1-.1-2.18-.24-3.26-.39-.12-1.47-.23-2.93-.35-4.39a.2.2 0 0 0 -.37-.09l-2.64 3.9c-1.32-.25-2.64-.54-3.94-.88a.19.19 0 0 0 -.21.31c1 .88 1.84 1.8 2.7 2.73-.71 1.07-2.79 3.84-2.56 3.76l.12-.05a43.79 43.79 0 0 0 4.27-1.61 44.49 44.49 0 0 1 3.16 4.34c.11.18.45.11.43-.1-.14-1.87-.29-3.74-.43-5.62 1.07-.49 2.14-1 3.19-1.55.19-.1.08-.34-.11-.36z"/><path d="m144.34 310.79c-.64.2-1.28.38-1.92.56-.41-.8-.83-1.59-1.24-2.38a.12.12 0 0 0 -.23 0c-.18.94-.37 1.88-.55 2.82-.8.17-1.6.32-2.42.44a.12.12 0 0 0 0 .23c.74.26 1.46.56 2.17.88a25.27 25.27 0 0 0 -.54 2.72l.05-.06a26.08 26.08 0 0 0 2-1.92 27.44 27.44 0 0 1 2.81 1.68c.1.07.28-.05.22-.16l-1.59-3c.48-.54 1-1.08 1.42-1.64.05-.1-.06-.21-.18-.17z"/><path d="m22.3 181c-.64-.21-1.26-.43-1.89-.67l.39-2.65a.13.13 0 0 0 -.21-.11l-2.1 2c-.74-.33-1.49-.68-2.22-1a.12.12 0 0 0 -.16.16c.44.65.85 1.31 1.24 2a27.4 27.4 0 0 0 -2 1.89h.08c-.08.07 1.9-.25 2.75-.39a28.3 28.3 0 0 1 1.3 3c0 .12.25.13.27 0 .17-1.13.33-2.26.49-3.39.71-.16 1.41-.32 2.11-.5.1-.18.06-.34-.05-.34z"/><path d="m192.61 176.42c-.64.2-1.28.38-1.92.56-.41-.8-.83-1.59-1.24-2.38a.12.12 0 0 0 -.23 0c-.18.94-.37 1.88-.55 2.82-.8.17-1.6.32-2.42.44a.12.12 0 0 0 0 .23c.74.26 1.46.56 2.17.88-.15.77-.66 2.82-.55 2.72l.06-.06c0 .11 1.4-1.31 2-1.92a27.44 27.44 0 0 1 2.81 1.68c.1.07.27-.05.21-.16-.52-1-1-2-1.58-3 .48-.54 1-1.08 1.42-1.64.05-.1-.06-.21-.18-.17z"/><path d="m185.68 272c-.64.2-1.28.38-1.93.56-.41-.8-.82-1.59-1.24-2.38a.12.12 0 0 0 -.23 0c-.18.94-.36 1.88-.55 2.82-.8.17-1.6.32-2.42.44a.12.12 0 0 0 0 .23c.74.26 1.45.56 2.16.88-.15.77-.65 2.82-.54 2.72l.06-.06a26.61 26.61 0 0 0 2-1.92 27.44 27.44 0 0 1 2.81 1.68c.11.07.28-.05.22-.16l-1.59-3c.49-.54 1-1.08 1.42-1.64.06-.1-.06-.17-.17-.17z" fill="#fff"/><path d="m20.67 14.73c-.67-.11-1.32-.23-2-.36 0-.89 0-1.79-.05-2.68a.12.12 0 0 0 -.22-.07l-1.72 2.28c-.8-.21-1.59-.43-2.37-.68-.12 0-.22.1-.13.18.54.57 1.05 1.16 1.54 1.76-.47.62-1.84 2.23-1.7 2.19h.08c-.06.08 1.84-.55 2.65-.83a25.84 25.84 0 0 1 1.77 2.76c.06.1.27.08.26-.05l-.06-3.43c.67-.26 1.34-.54 2-.83.12-.08.06-.22-.05-.24z" fill="#fff"/><path d="m180 8.93c-.61.28-1.23.54-1.85.79l-1.51-2.21a.13.13 0 0 0 -.23.06c-.07 1-.13 1.91-.2 2.87-.78.27-1.56.52-2.35.73-.12 0-.13.21 0 .23.77.18 1.51.39 2.26.62a26.13 26.13 0 0 0 -.21 2.76l.05-.06c0 .11 1.23-1.47 1.76-2.15a27.42 27.42 0 0 1 3 1.32c.11.06.27-.08.19-.18-.64-1-1.29-1.89-1.94-2.83.42-.59.82-1.18 1.21-1.79.04-.09-.09-.21-.18-.16z" fill="#fff"/><path d="m21.79 366.74c-.67 0-1.34-.06-2-.12l-.37-2.62a.13.13 0 0 0 -.23-.05l-1.47 2.48c-.81-.11-1.62-.24-2.42-.4a.12.12 0 0 0 -.11.2c.6.5 1.18 1 1.73 1.56-.39.68-1.56 2.43-1.42 2.38h.07c-.05.09 1.76-.77 2.54-1.14a26.63 26.63 0 0 1 2.08 2.53c.07.1.28.05.26-.08-.16-1.14-.31-2.27-.47-3.4.64-.34 1.26-.69 1.88-1.06.14-.13.05-.27-.07-.28z" fill="#fff"/><path d="m56.52 25.15c-.67 0-1.33 0-2 0-.17-.88-.35-1.76-.52-2.63a.12.12 0 0 0 -.23 0l-1.32 2.48c-.82-.06-1.63-.14-2.45-.25-.12 0-.2.14-.1.21.64.46 1.24.95 1.83 1.45-.35.7-1.41 2.52-1.28 2.46h.07a27.07 27.07 0 0 0 2.48-1.28 26.51 26.51 0 0 1 2.21 2.41c.08.09.28 0 .26-.1-.23-1.12-.45-2.24-.67-3.36.61-.38 1.22-.77 1.81-1.17.11-.09.03-.22-.09-.22z"/><path d="m192.61 42.82c-.64.21-1.28.39-1.92.56-.41-.79-.83-1.58-1.24-2.38a.13.13 0 0 0 -.23 0c-.18.94-.37 1.88-.55 2.82-.8.17-1.6.32-2.42.44a.12.12 0 0 0 0 .23c.74.27 1.46.57 2.17.89-.15.77-.66 2.81-.55 2.71l.06-.05c0 .1 1.4-1.31 2-1.93a27.44 27.44 0 0 1 2.81 1.68c.1.07.27 0 .21-.16l-1.58-3c.48-.53 1-1.08 1.42-1.63.05-.11-.06-.21-.18-.18z"/><path d="m200.49 219.31c-.64.21-1.28.39-1.92.56-.41-.79-.83-1.58-1.24-2.38a.13.13 0 0 0 -.23 0c-.18.94-.37 1.88-.55 2.82-.8.17-1.6.33-2.42.44-.12 0-.15.19 0 .23.74.27 1.46.57 2.17.89a25.25 25.25 0 0 0 -.54 2.71l.05-.05a26.08 26.08 0 0 0 2-1.92 25.75 25.75 0 0 1 2.81 1.68c.1.07.28-.05.22-.17l-1.59-3c.49-.53 1-1.07 1.42-1.63.05-.1-.06-.21-.18-.18z"/><g fill="#ed1e79"><path d="m111.21 378.19a47.77 47.77 0 0 0 -.93-7.62c0-.1-.17-.07-.16 0a47.58 47.58 0 0 0 .79 7.64.15.15 0 0 0 .3-.02z"/><path d="m109.79 391.35a49.94 49.94 0 0 0 .89-7.42c0-.18-.29-.22-.32 0a50.3 50.3 0 0 0 -.66 7.45c-.01.02.08.03.09-.03z"/><path d="m112.51 411.3h.89a111.24 111.24 0 0 0 2.12-19.3c.26-9.55-.36-19.37-3-28.61-.06-.2-.41-.16-.38.06 1.27 9.36 2.45 18.65 2.27 28.12a143.41 143.41 0 0 1 -1.9 19.73z"/><path d="m107.17 359.72c0-.11-.21-.08-.19 0 1.87 17.67-2.93 34.61-8 51.34a1.72 1.72 0 0 0 -.07.21h1.43l.56-1.88c4.81-15.93 9.79-32.92 6.27-49.67z"/><path d="m119.23 366.34a31.55 31.55 0 0 1 4.52 5.58.06.06 0 1 0 .1-.06 20.25 20.25 0 0 0 -3.55-5.14c-1.55-1.6-3.43-2.83-4.89-4.51-.07-.08-.2 0-.15.11 1.03 1.68 2.6 2.68 3.97 4.02z"/><path d="m109.81 396.29c0-.16-.26-.2-.28 0a134.74 134.74 0 0 1 -3 15h1.7a62.85 62.85 0 0 0 1.58-15z"/><path d="m104.8 407.55c-.53 1.23-1 2.49-1.49 3.75h.46c.38-1.24.75-2.48 1.09-3.73.01-.03-.04-.05-.06-.02z"/><path d="m116 365.31c-.07-.08-.21 0-.15.11a64.71 64.71 0 0 1 10.58 23.15 73.21 73.21 0 0 1 1 22.73h1.74a.13.13 0 0 1 0-.06c1.55-16.32-2.34-33.24-13.17-45.93z"/><path d="m131.54 408.5a63.8 63.8 0 0 0 .69-8.5c0-.1-.15-.12-.17 0a66.91 66.91 0 0 0 -.85 8.48c0 .17.3.2.33.02z"/><path d="m115.46 371c2 3.93 3.13 8 4.62 12.1a.12.12 0 0 0 .23 0c-.24-4.33-2.27-8.61-4.7-12.14a.09.09 0 1 0 -.15.04z"/><path d="m111.18 355.73a.39.39 0 0 0 -.38.68c7.23 4.91 13.25 10.87 17.45 18.6a48.49 48.49 0 0 1 6 21.82 87.72 87.72 0 0 1 -1.25 14.47h1.26c.91-7.54 1.58-15.08.06-22.64-2.65-13.24-11.13-26.34-23.14-32.93z"/><path d="m118.27 411.3a13.79 13.79 0 0 0 .34-10.89c-.07-.18-.38-.17-.35 0a47.34 47.34 0 0 1 -.1 10.84z"/><path d="m124.54 411.3a60.32 60.32 0 0 0 -4.32-25.84c-.08-.2-.39-.12-.32.09a81.88 81.88 0 0 1 3.51 25.75z"/></g><text fill="#fff" font-family="LucidaBright, Lucida Bright" font-size="41.98" letter-spacing="-.03em" transform="matrix(.99169363 -.12862252 .12862252 .99169363 42.59 141.97)">School</text><text fill="#fff" font-family="LucidaBright, Lucida Bright" font-size="41.98" letter-spacing="-.04em" transform="matrix(.99169363 -.12862252 .12862252 .99169363 57.04 103.38)">Back</text><text fill="#fff" font-family="LucidaBright, Lucida Bright" font-size="21.47" letter-spacing="-.03em" transform="matrix(.99169363 -.12862252 .12862252 .99169363 93.84 113.45)">to</text><text font-family="AustieBostSmallWorld, Austie Bost Small World" font-size="8.65" transform="translate(53.46 378.72)">Lorem Ipsum Dolor Sit Am<tspan letter-spacing="-.03em" x="47.73" y="0">e</tspan><tspan x="49.26" y="0">t, co</tspan><tspan letter-spacing="-.03em" x="57.55" y="0">n</tspan><tspan x="59.5" y="0">sect</tspan><tspan letter-spacing="-.03em" x="66.08" y="0">e</tspan><tspan x="67.61" y="0">tur adipiscing elit,</tspan><tspan x="-13.63" y="10.39">sed do eius</tspan><tspan letter-spacing="-.02em" x="7.68" y="10.39">m</tspan><tspan x="10.11" y="10.39">od tempor i</tspan><tspan letter-spacing="-.02em" x="31.85" y="10.39">n</tspan><tspan letter-spacing="0em" x="33.87" y="10.39">cididu</tspan><tspan letter-spacing="-.05em" x="43.84" y="10.39">n</tspan><tspan letter-spacing="0em" x="45.57" xml:space="preserve" y="10.39">t ut  labore </tspan><tspan letter-spacing="-.03em" x="70.75" y="10.39">e</tspan><tspan x="72.29" y="10.39">t dolore mag</tspan><tspan letter-spacing="-.02em" x="96.32" y="10.39">n</tspan><tspan x="98.27" y="10.39">a aliqua.</tspan></text></svg>