<?xml version='1.0' encoding='utf-8'?>
<!DOCTYPE svg PUBLIC '-//W3C//DTD SVG 1.1//EN' 'http://www.w3.org/Graphics/SVG/1.1/DTD/svg11.dtd'>
<svg width="30" version="1.1" xmlns="http://www.w3.org/2000/svg" height="30" viewBox="0 0 30 30" xmlns:xlink="http://www.w3.org/1999/xlink" enable-background="new 0 0 30 30">
  <path fill-rule="evenodd" d="m24.508,23.006v7h-7v-2h3.539l-4.381-4.381c-1.162,0.863-2.598,1.381-4.159,1.381-3.866,0-7-3.134-7-7 0-2.797 1.645-5.204 4.017-6.325 0.001-0.021 0.007-0.04 0.008-0.061 0.063-0.027 0.459-0.199 0.914-0.331 0.669-0.192 1.557-0.283 2.062-0.283 2.381,0 4.473,1.196 5.735,3.013-0.037,0.035-0.369,0.338-0.709,0.521-0.514,0.278-1.023,0.459-1.025,0.466 0,0-1.07-2-4-2-0.43,0-1.225,0.12-1.74,0.309-0.472,0.173-1.01,0.504-1.01,0.504s0.008,0.031 0.016,0.061c-0.004-0.016-0.012-0.028-0.016-0.044-1.354,0.895-2.25,2.427-2.25,4.171 0,2.762 2.238,5 5,5 1.657,0 3.108-0.817 4.016-2.06 0.084,0.014 0.771,0.118 1.324-0.001 0.602-0.13 1.051-0.261 1.107-0.276-0.221,0.531-0.492,1.038-0.828,1.495l4.381,4.382v-3.54h1.999zm-6.266-8.988c0.004-0.002 0.016-0.013 0.016-0.013s0.025-0.028-0.016,0.013zm3.266-2.013c0-2.762-2.238-5-5-5-3.108,0-4,2-4,2s-0.902-0.063-1.605,0.106c-0.529,0.128-0.822,0.265-0.873,0.29 0.313-0.778 0.756-1.492 1.312-2.104l-2.399-2.397-2.1,2.1-1.331-1.332 2.1-2.099-2.119-2.119 1.46-1.46 2.119,2.119 2.1-2.099 1.331,1.33-2.1,2.1 2.546,2.546c1.043-0.619 2.257-0.981 3.559-0.981 3.865,0 7,3.134 7,7 0,2.797-1.645,5.204-4.018,6.325 0,0.01-0.002,0.018-0.002,0.026-0.055,0.023-0.566,0.24-1.059,0.376-0.498,0.138-0.984,0.179-0.984,0.179s0.01-0.008-0.033,0.028c-0.297,0.039-0.598,0.065-0.904,0.065-2.415,0-4.518-1.238-5.773-3.099 0.024-0.016 0.467-0.291 0.917-0.481 0.459-0.194 0.918-0.295 0.918-0.295s1.402,1.875 3.938,1.875c0.299,0 0.588-0.038 0.873-0.088 0-0.107 0.033,0.025 0.033,0.025s0.365-0.007 1.072-0.346c0.414-0.197 0.771-0.404 0.771-0.404s-0.033-0.142 0-0.017c1.354-0.893 2.251-2.425 2.251-4.169zm-12.001-.375c0,0 0.046-0.391 0.024-0.011-0.004,0.002-0.024,0.011-0.024,0.011zm.5-2.219c0,0 0.016-0.008 0.021-0.01-0.158,0.394-0.021,0.01-0.021,0.01zm9.481,8.945c0.002-0.001 0.02-0.008 0.02-0.008s-0.041-0.043-0.02,0.008zm-8.753-2.45c-0.001,0-0.009,0.005-0.009,0.005s0.075-0.121 0.009-0.005zm-.962-2.028m6.75,7.067c-0.006-0.001-0.016-0.003-0.016-0.003s0.196-0.242 0.016,0.003zm2.454-.284c0,0-0.018,0.005-0.021,0.007 0.093-0.228 0.021-0.007 0.021-0.007z"/>
</svg>
