<?xml version="1.0" encoding="utf-8"?>
<!-- Generator: Adobe Illustrator 22.1.0, SVG Export Plug-In . SVG Version: 6.00 Build 0)  -->
<svg version="1.1" id="Layer_1" xmlns="http://www.w3.org/2000/svg" xmlns:xlink="http://www.w3.org/1999/xlink" x="0px" y="0px"
	 viewBox="0 0 504.7 504.7" style="enable-background:new 0 0 504.7 504.7;" xml:space="preserve">
<style type="text/css">
	.st0{fill:#3AD5F9;stroke:#FFFFFF;stroke-width:17.3335;stroke-miterlimit:10;}
	.st1{fill:#FFFFFF;}
	.st2{fill:#0382F9;}
	.st3{fill:#0656F7;}
</style>
<g>
	<path class="st0" d="M252.9,23.7c-124.7,0-226.6,93.6-226.6,209c0,65.8,33.1,124.5,83.3,162.8v79.7l77.7-42.2
		c20.5,5.7,42.7,8.7,65.2,8.7c124.7,0,226-93.6,226-209S377.6,23.7,252.9,23.7z"/>
	<polygon class="st1" points="280.1,137 63.9,177 115.9,364.8 313.6,373.7 439.2,300.2 378.8,174.7 	"/>
	<path class="st2" d="M253,48.6c-120.2,0-218.4,73.5-218.4,184.8c0,63.4,31.9,119.9,80.3,156.9v76.8l74.9-40.7
		c19.8,5.5,41.1,8.4,62.8,8.4c120.2,0,217.8-90.2,217.8-201.5S373.2,48.6,253,48.6z M274.7,303.2l-55.4-59.1l-108.1,59.1L230.1,177
		l56.8,59.1L393.6,177L274.7,303.2z"/>
	<g>
		<polygon class="st3" points="380.9,184 279.3,228.3 286.8,236.1 		"/>
		<path class="st3" d="M391.2,179.5L274.7,303.2l-48.6-51.8L126.2,295l-15.1,8.3l2.7-2.8l-55.7,23.9c14,25.6,33.2,48.2,56.8,66v76.8
			l74.9-40.7c19.8,5.5,41.1,8.4,62.8,8.4c120.2,0,217.8-90.2,217.8-201.5c0-28.7-7.6-55.4-19.2-80.1L391.2,179.5z"/>
	</g>
</g>
</svg>
