<svg height="496pt" viewBox="0 0 496 496" width="496pt" xmlns="http://www.w3.org/2000/svg"><path d="m368 304c52.9375 0 96-43.0625 96-96s-43.0625-96-96-96-96 43.0625-96 96 43.0625 96 96 96zm0-176c44.113281 0 80 35.886719 80 80s-35.886719 80-80 80-80-35.886719-80-80 35.886719-80 80-80zm0 0"/><path d="m496 208c0-70.574219-57.425781-128-128-128-22.414062 0-43.488281 5.832031-61.832031 16h-194.167969v-96h-56c-30.871094 0-56 25.121094-56 56v304c0 30.878906 25.128906 56 56 56h272v40c0 22.054688 17.945312 40 40 40s40-17.945312 40-40v-40h88zm-16 0c0 61.761719-50.238281 112-112 112s-112-50.238281-112-112 50.238281-112 112-112 112 50.238281 112 112zm-112 128c8.207031 0 16.214844-.847656 24-2.335938v18.335938h-48v-18.335938c7.785156 1.488282 15.792969 2.335938 24 2.335938zm-176-224v128h-48v16h64v-144h75.625c-26.679688 23.472656-43.625 57.761719-43.625 96s16.945312 72.527344 43.625 96h-59.625v96h-48v-96h-64v-48h16v-16h-16v-128zm-176-56c0-22.054688 17.945312-40 40-40h40v288h-40c-15.65625 0-29.832031 6.457031-40 16.839844zm0 304c0-22.054688 17.945312-40 40-40h104v80h-104c-22.054688 0-40-17.945312-40-40zm224 40v-80h66.167969c6.910156 3.832031 14.214843 7 21.832031 9.511719v22.488281h-16v16h16v32zm128 80c-13.230469 0-24-10.769531-24-24v-88h48v88c0 13.230469-10.769531 24-24 24zm40-80v-32h16v-16h-16v-22.488281c30.816406-10.175781 56.496094-31.703125 72-59.679688v130.167969zm0 0"/></svg>