<svg viewBox="0 -55 512 512" xmlns="http://www.w3.org/2000/svg"><path d="m216 342c-5.53125 0-10 4.480469-10 10s4.46875 10 10 10c5.519531 0 10-4.480469 10-10s-4.480469-10-10-10zm0 0"/><path d="m502 382h-23.554688l-117.789062-171.726562c-5.582031-8.136719-14.804688-13.007813-24.675781-13.03125-.019531 0-.039063 0-.0625 0-9.84375 0-19.058594 4.832031-24.660157 12.925781l-14.828124 21.417969-55.769532-81.304688c-3.621094-5.289062-8.882812-9.1875-14.761718-11.285156v-38.996094h110.101562c4.042969 0 7.691406-2.4375 9.238281-6.171875 1.546875-3.738281.691407-8.039063-2.167969-10.898437l-32.929687-32.929688 32.929687-32.929688c2.859376-2.859374 3.714844-7.160156 2.167969-10.898437-1.546875-3.734375-5.195312-6.171875-9.238281-6.171875h-120c-5.523438 0-10 4.476562-10 10v128.945312c-5.898438 2.066407-11.09375 5.945313-14.742188 11.222657l-44.769531 64.667969c-.039062.054687-.078125.113281-.117187.167968l-115.609375 166.996094h-20.761719c-5.523438 0-10 4.476562-10 10s4.476562 10 10 10h492c5.523438 0 10-4.476562 10-10s-4.476562-10-10-10zm-102.402344 0-57.308594-83.550781 37.882813-24.363281 74.023437 107.914062zm-71.894531-160.449219c1.898437-2.746093 4.9375-4.308593 8.238281-4.308593 3.335938.007812 6.335938 1.589843 8.222656 4.34375l24.691407 35.996093-37.882813 24.367188-22.4375-32.714844zm-101.804687-201.550781h85.960937l-22.929687 22.929688c-3.90625 3.90625-3.90625 10.234374 0 14.140624l22.929687 22.929688h-85.960937zm-18.195313 141.546875c1.894531-2.734375 4.886719-4.300781 8.21875-4.304687.023437 0 .050781.003906.078125.003906.007812 0 .015625-.003906.027344-.003906 3.300781.03125 6.261718 1.605468 8.136718 4.34375l37.632813 54.867187-46.636719 24.273437-45.773437-23.832031zm-152.617187 220.453125 102.824218-148.527344 52.632813 27.398438c1.445312.75 3.03125 1.128906 4.617187 1.128906 1.585938 0 3.167969-.375 4.617188-1.128906l53.414062-27.800782 102.152344 148.929688zm0 0"/><path d="m256 342c-5.523438 0-10 4.476562-10 10s4.476562 10 10 10h40c5.523438 0 10-4.476562 10-10s-4.476562-10-10-10zm0 0"/></svg>