<?xml version="1.0" encoding="utf-8"?>
<!-- Generator: Adobe Illustrator 19.0.0, SVG Export Plug-In . SVG Version: 6.00 Build 0)  -->
<svg xmlns="http://www.w3.org/2000/svg" xmlns:xlink="http://www.w3.org/1999/xlink" version="1.1" id="Layer_1" x="0px" y="0px" viewBox="0 2 98 98" style="enable-background:new 0 2 98 98;" xml:space="preserve" width="512" height="512">
<style type="text/css">
	.st0{fill:url(#SVGID_1_);}
</style>
<linearGradient id="SVGID_1_" gradientUnits="userSpaceOnUse" x1="49" y1="10.5" x2="49" y2="91.5">
	<stop offset="0" style="stop-color:#00EFD1"/>
	<stop offset="1" style="stop-color:#00ACEA"/>
</linearGradient>
<path class="st0" d="M86.5,10.5H59.6c-1.7,0-3,1.3-3,3s1.3,3,3,3h19.7L59.2,36.6c-5.4-4.4-12.2-7.1-19.7-7.1c-17.1,0-31,13.9-31,31  c0,17.1,13.9,31,31,31c17.1,0,31-13.9,31-31c0-7.5-2.7-14.3-7.1-19.7l20.1-20.1v19.7c0,1.7,1.3,3,3,3s3-1.3,3-3V13.5  C89.5,11.8,88.2,10.5,86.5,10.5z M39.5,85.5c-13.8,0-25-11.2-25-25s11.2-25,25-25s25,11.2,25,25S53.3,85.5,39.5,85.5z"/>
</svg>
