<svg height="496pt" viewBox="0 0 496 496" width="496pt" xmlns="http://www.w3.org/2000/svg"><path d="m496 240h-48.199219c-4.121093-103.921875-87.878906-187.679688-191.800781-191.800781v-48.199219h-16v48.199219c-103.921875 4.121093-187.679688 87.878906-191.800781 191.800781h-48.199219v16h48.199219c4.121093 103.921875 87.878906 187.679688 191.800781 191.800781v48.199219h16v-48.199219c103.921875-4.121093 187.679688-87.878906 191.800781-191.800781h48.199219zm-64.199219 0h-32.199219c-4.066406-77.414062-66.1875-139.535156-143.601562-143.59375v-32.207031c95.105469 4.097656 171.703125 80.695312 175.800781 175.800781zm-80.207031 0c-3.90625-50.960938-44.632812-91.6875-95.59375-95.59375v-32c68.601562 4.019531 123.574219 58.992188 127.59375 127.59375zm-207.1875 16c3.90625 50.960938 44.632812 91.6875 95.59375 95.59375v32c-68.601562-4.019531-123.574219-58.992188-127.59375-127.59375zm95.59375 0v31.191406c-15.648438-3.191406-28-15.542968-31.191406-31.191406zm-31.191406-16c3.191406-15.648438 15.542968-28 31.191406-31.191406v31.191406zm47.191406 16h31.191406c-3.191406 15.648438-15.542968 28-31.191406 31.191406zm0-16v-31.191406c15.648438 3.191406 28 15.542968 31.191406 31.191406zm-16-47.359375c-24.472656 3.527344-43.832031 22.886719-47.359375 47.359375h-32.234375c3.824219-42.144531 37.449219-75.777344 79.59375-79.59375zm-47.359375 63.359375c3.527344 24.472656 22.886719 43.832031 47.359375 47.359375v32.234375c-42.144531-3.824219-75.777344-37.449219-79.59375-79.59375zm63.359375 47.359375c24.472656-3.527344 43.832031-22.886719 47.359375-47.359375h32.234375c-3.824219 42.144531-37.449219 75.777344-79.59375 79.59375zm47.359375-63.359375c-3.527344-24.472656-22.886719-43.832031-47.359375-47.359375v-32.234375c42.144531 3.824219 75.777344 37.449219 79.59375 79.59375zm-63.359375-175.800781v32.152343c-71 3.671876-130.03125 55.570313-141.894531 126.320313l15.78125 2.648437c10.5625-63.007812 62.960937-109.320312 126.121093-112.96875v32.046876c-50.96875 3.914062-91.695312 44.640624-95.601562 95.601562h-80.207031c4.097656-95.105469 80.695312-171.703125 175.800781-175.800781zm-175.800781 191.800781h32.199219c4.066406 77.414062 66.1875 139.535156 143.601562 143.59375v32.199219c-95.105469-4.089844-171.703125-80.6875-175.800781-175.792969zm191.800781 175.800781v-32.152343c71-3.671876 130.03125-55.570313 141.894531-126.320313l-15.78125-2.648437c-10.5625 63.007812-62.960937 109.320312-126.121093 112.96875v-32.046876c50.96875-3.914062 91.695312-44.640624 95.601562-95.601562h80.199219c-4.089844 95.105469-80.6875 171.703125-175.792969 175.800781zm0 0"/></svg>