<?xml version="1.0" encoding="iso-8859-1"?>
<!-- Generator: Adobe Illustrator 19.0.0, SVG Export Plug-In . SVG Version: 6.00 Build 0)  -->
<svg version="1.1" id="Capa_1" xmlns="http://www.w3.org/2000/svg" xmlns:xlink="http://www.w3.org/1999/xlink" x="0px" y="0px"
	 viewBox="0 0 490 490" style="enable-background:new 0 0 490 490;" xml:space="preserve">
<path d="M348.604,311.351c-21.655,0-39.269,18.097-39.269,40.338c0,22.241,17.614,40.338,39.269,40.338
	c21.656,0,39.269-18.098,39.269-40.338C387.873,329.448,370.26,311.351,348.604,311.351z M348.604,371.176
	c-10.155,0-18.418-8.741-18.418-19.487c0-10.747,8.262-19.487,18.418-19.487c10.157,0,18.418,8.74,18.418,19.487
	C367.021,362.435,358.76,371.176,348.604,371.176z"/>
<path d="M141.391,311.351c-21.655,0-39.269,18.097-39.269,40.338c0,22.241,17.614,40.338,39.269,40.338
	c21.656,0,39.269-18.098,39.269-40.338C180.66,329.448,163.047,311.351,141.391,311.351z M141.391,371.176
	c-10.155,0-18.418-8.741-18.418-19.487c0-10.747,8.262-19.487,18.418-19.487c10.157,0,18.418,8.74,18.418,19.487
	C159.809,362.435,151.548,371.176,141.391,371.176z"/>
<rect x="212.39" y="341.263" width="65.216" height="20.851"/>
<path d="M461.32,58.562h-18.062C438.68,25.525,410.264,0,375.986,0H114.01C79.732,0,51.316,25.525,46.737,58.562H28.681
	C12.864,58.562,0,71.732,0,87.919v92.929c0,16.188,12.864,29.357,28.681,29.357h17.395v154.098c0,32.721,23.26,60.113,54.113,66.517
	v18.338c0,22.521,17.349,40.842,38.668,40.842h6.078c21.319,0,38.668-18.321,38.668-40.842v-16.921h122.795v16.921
	c0,22.521,17.349,40.842,38.668,40.842h6.073c21.319,0,38.668-18.321,38.668-40.842V430.82
	c30.853-6.403,54.113-33.796,54.113-66.517V210.206h17.4c15.815,0,28.68-13.169,28.68-29.357V87.919
	C490,71.732,477.136,58.562,461.32,58.562z M114.01,20.851h261.977c25.962,0,47.083,21.121,47.083,47.078V89.08H66.927V67.929
	C66.927,41.972,88.047,20.851,114.01,20.851z M66.927,109.931h166.452v157.142H66.927V109.931z M254.23,109.931h168.839v157.142
	H254.23V109.931z M28.681,189.355c-4.317,0-7.83-3.818-7.83-8.506V87.919c0-4.688,3.512-8.506,7.83-8.506h17.395v109.941H28.681z
	 M162.752,449.158c0,11.022-7.992,19.991-17.817,19.991h-6.078c-9.825,0-17.817-8.969-17.817-19.991v-16.921h41.713V449.158z
	 M351.139,469.149h-6.073c-9.825,0-17.817-8.969-17.817-19.991v-16.921h41.707v16.921
	C368.956,460.18,360.964,469.149,351.139,469.149z M375.986,411.386H114.01c-25.963,0-47.083-21.121-47.083-47.083v-76.379h356.142
	v76.379C423.069,390.265,401.948,411.386,375.986,411.386z M469.149,180.849c0,4.688-3.512,8.506-7.828,8.506h-17.4V79.413h17.4
	c4.316,0,7.828,3.818,7.828,8.506V180.849z"/>
<g>
</g>
<g>
</g>
<g>
</g>
<g>
</g>
<g>
</g>
<g>
</g>
<g>
</g>
<g>
</g>
<g>
</g>
<g>
</g>
<g>
</g>
<g>
</g>
<g>
</g>
<g>
</g>
<g>
</g>
</svg>
