<svg height="500pt" viewBox="0 -2 500.424 500" width="500pt" xmlns="http://www.w3.org/2000/svg"><path d="m500.425781 112.210938h-132.425781v-40c0-13.230469-10.769531-24-24-24h-152v-24c0-13.230469-10.769531-24-24-24s-24 10.769531-24 24v408h-77.769531l-16 48h-18.230469v16h272v-16h-18.230469l-16-48h-77.769531v-192h128v40c0 13.234374 10.769531 24 24 24h156.425781l-43.640625-96zm-332.425781-96c4.40625 0 8 3.585937 8 8v8h-16v-8c0-4.414063 3.59375-8 8-8zm8 32v192h-16v-192zm92.894531 432h-201.789062l10.664062-32h180.46875zm-108.894531-48v-176h16v176zm32-368h152c4.40625 0 8 3.585937 8 8v153.472656c-2.511719-.894532-5.183594-1.472656-8-1.472656h-152zm152 176c4.40625 0 8 3.585937 8 8 0 4.417968-3.59375 8-8 8-2.816406 0-5.488281.578124-8 1.472656v-17.472656zm131.574219 48h-131.574219c-4.40625 0-8-3.582032-8-8 0-4.414063 3.59375-8 8-8 13.230469 0 24-10.765626 24-24v-120h107.574219l-36.359375 80zm0 0"/><path d="m0 480.210938h16v16h-16zm0 0"/><path d="m320 480.210938h16v16h-16zm0 0"/><path d="m208 80.210938h96v16h-96zm0 0"/><path d="m320 80.210938h16v16h-16zm0 0"/><path d="m384 144.210938h32v16h-32zm0 0"/><path d="m432 144.210938h16v16h-16zm0 0"/></svg>