<svg xmlns="http://www.w3.org/2000/svg" xmlns:xlink="http://www.w3.org/1999/xlink" viewBox="0 0 461.97 156.88"><defs><style>.cls-1{fill:url(#linear-gradient);}.cls-2{fill:#f04e23;}.cls-3{fill:url(#linear-gradient-2);}.cls-4{fill:url(#linear-gradient-3);}.cls-5{fill:url(#linear-gradient-4);}.cls-6{fill:url(#linear-gradient-5);}.cls-7{fill:url(#linear-gradient-6);}.cls-8{fill:url(#linear-gradient-7);}.cls-9{fill:url(#linear-gradient-8);}.cls-10{fill:url(#linear-gradient-9);}</style><linearGradient id="linear-gradient" x1="-38.32" y1="75.01" x2="486.67" y2="75.01" gradientUnits="userSpaceOnUse"><stop offset="0" stop-color="#f04e23"/><stop offset="1" stop-color="#ffc20e"/></linearGradient><linearGradient id="linear-gradient-2" x1="6.26" y1="75.01" x2="462.9" y2="75.01" xlink:href="#linear-gradient"/><linearGradient id="linear-gradient-3" x1="6.62" y1="75.01" x2="463.26" y2="75.01" xlink:href="#linear-gradient"/><linearGradient id="linear-gradient-4" x1="4.02" y1="66.96" x2="448.6" y2="66.96" xlink:href="#linear-gradient"/><linearGradient id="linear-gradient-5" x1="7.78" y1="75.01" x2="454.8" y2="75.01" xlink:href="#linear-gradient"/><linearGradient id="linear-gradient-6" x1="354.57" y1="75.7" x2="325.67" y2="105.24" gradientTransform="translate(-0.04 0.19)" gradientUnits="userSpaceOnUse"><stop offset="0" stop-color="#8dc63f"/><stop offset="1" stop-color="#0089cf"/></linearGradient><linearGradient id="linear-gradient-7" x1="362.19" y1="22.2" x2="401.18" y2="76.59" gradientTransform="matrix(1, 0, 0, 1, 0, 0)" xlink:href="#linear-gradient-6"/><linearGradient id="linear-gradient-8" x1="1.65" y1="60.76" x2="458.29" y2="60.76" xlink:href="#linear-gradient"/><linearGradient id="linear-gradient-9" x1="364.41" y1="48.52" x2="380.83" y2="28.51" xlink:href="#linear-gradient"/></defs><title>logo</title><g id="Layer_2" data-name="Layer 2"><g id="artwork"><path class="cls-1" d="M310.71,49.74a14.23,14.23,0,0,0-3.5-3.86,13.77,13.77,0,0,0-8.59-2.94h-2.41V53.68h2.41a3.47,3.47,0,0,1,3.57,3.56v49.84h10.73V69.15a14.77,14.77,0,0,1,4.53-10.94,14.57,14.57,0,0,1,10.76-4.53h7.52V42.94h-7.52A24.82,24.82,0,0,0,310.71,49.74Z"/><path class="cls-2" d="M99.52,156.88l3.46-8.59L95,128.44h2.11L104,145.59l6.85-17.15H113l-11.4,28.44Z"/><path class="cls-2" d="M120,130.82a7.91,7.91,0,0,1,13.5,5.62v3.91a7.91,7.91,0,1,1-15.82,0v-3.91A7.63,7.63,0,0,1,120,130.82Zm1.92,14.23a5.94,5.94,0,0,0,9.42-3.19,6.24,6.24,0,0,0,.18-1.51v-3.91a6.16,6.16,0,0,0-.18-1.5,5.93,5.93,0,0,0-11.49,0,6.16,6.16,0,0,0-.18,1.5v3.91a6.24,6.24,0,0,0,.18,1.51A5.8,5.8,0,0,0,121.88,145.05Z"/><path class="cls-2" d="M153.58,128.5h2v11.85a7.92,7.92,0,1,1-15.83,0V128.5h2v11.85a6.24,6.24,0,0,0,.18,1.51,5.89,5.89,0,0,0,5.75,4.45,5.91,5.91,0,0,0,5.74-4.45,6.24,6.24,0,0,0,.18-1.51Z"/><path class="cls-2" d="M165.81,136.44v11.85h-2V132.47a1.92,1.92,0,0,0-.57-1.41,2,2,0,0,0-1.42-.57v-2a3.81,3.81,0,0,1,2.38.81,4,4,0,0,1,1.41,2.08,7.57,7.57,0,0,1,6.08-2.89v2a6,6,0,0,0-5.9,5.95Z"/><path class="cls-2" d="M190.72,141.86a5.91,5.91,0,0,0,5.77,4.45v2a7.9,7.9,0,0,1-7.94-7.94V121.83h2v6.67h6v2h-6v9.86A6.24,6.24,0,0,0,190.72,141.86Z"/><path class="cls-2" d="M206.62,136.44v11.85h-2V132.47a1.92,1.92,0,0,0-.57-1.41,2,2,0,0,0-1.42-.57v-2a3.81,3.81,0,0,1,2.38.81,4,4,0,0,1,1.41,2.08,7.57,7.57,0,0,1,6.08-2.89v2a5.66,5.66,0,0,0-4.15,1.74A5.73,5.73,0,0,0,206.62,136.44Z"/><path class="cls-2" d="M232.57,128.5h2v11.85a7.91,7.91,0,1,1-15.82,0V128.5h2v11.85a6.24,6.24,0,0,0,.18,1.51,5.93,5.93,0,0,0,11.49,0,6.24,6.24,0,0,0,.18-1.51Z"/><path class="cls-2" d="M242.82,144.32a1.92,1.92,0,0,0,.57,1.42,2,2,0,0,0,1.42.57v2a4,4,0,0,1-4-4V121.83h2Z"/><path class="cls-2" d="M253.9,156.88l3.46-8.59-7.94-19.85h2.11l6.85,17.15,6.86-17.15h2.17L256,156.88Z"/><path class="cls-2" d="M300.07,144.32a1.92,1.92,0,0,0,.57,1.42,2,2,0,0,0,1.42.57v2a3.81,3.81,0,0,1-2.38-.81,3.91,3.91,0,0,1-1.41-2.07,7.91,7.91,0,0,1-14-5.06v-3.91a7.92,7.92,0,0,1,7.94-7.94,7.47,7.47,0,0,1,5.9,2.71V128.5h2Zm-12.09.25a5.93,5.93,0,0,0,10.11-4.22v-3.91a5.93,5.93,0,1,0-11.85,0v3.91A5.77,5.77,0,0,0,288,144.57Z"/><path class="cls-2" d="M324.1,144.32a2,2,0,0,0,.57,1.39,1.87,1.87,0,0,0,1.41.6v2a3.78,3.78,0,0,1-2.37-.81,3.93,3.93,0,0,1-1.42-2.07,7.58,7.58,0,0,1-6.07,2.88,7.89,7.89,0,0,1-7.94-7.94v-4a7.92,7.92,0,0,1,13.83-5.23v-9.38h2Zm-12.09.25a5.89,5.89,0,0,0,8.36,0,5.77,5.77,0,0,0,1.74-4.22v-4a5.65,5.65,0,0,0-1.74-4.18,6,6,0,0,0-8.36,0,5.62,5.62,0,0,0-1.75,4.18v4A5.74,5.74,0,0,0,312,144.57Z"/><path class="cls-2" d="M344.41,128.5h2.11l-7.88,19.79L330.7,128.5h2.1l5.84,14.44Z"/><path class="cls-2" d="M352.74,127.48v-3h2v3Zm2,16.84a2,2,0,0,0,.57,1.39,1.87,1.87,0,0,0,1.42.6v1.92a3.87,3.87,0,0,1-2.8-1.14,3.72,3.72,0,0,1-1.17-2.77V128.44h2Z"/><path class="cls-2" d="M375.52,142h2.22a8.3,8.3,0,0,1-3,4.48,8.32,8.32,0,0,1-13.45-6.59v-3.07a8.31,8.31,0,0,1,13.45-6.58,8.26,8.26,0,0,1,3,4.48h-2.22a4.26,4.26,0,0,0-.54-1.21,6.08,6.08,0,0,0-2.26-2.16,6.43,6.43,0,0,0-6.14,0,6,6,0,0,0-2.25,2.16,6.35,6.35,0,0,0-.9,3.31v3.07a6.3,6.3,0,0,0,.9,3.31,6,6,0,0,0,2.25,2.17,6.43,6.43,0,0,0,6.14,0,6.11,6.11,0,0,0,2.26-2.17A4.08,4.08,0,0,0,375.52,142Z"/><path class="cls-2" d="M384.79,130.94A8.34,8.34,0,0,1,399,136.8v3.13H384.46a6.3,6.3,0,0,0,.9,3.31,6.54,6.54,0,0,0,2.26,2.14,6.21,6.21,0,0,0,7.73-1.3h2.53a8.25,8.25,0,0,1-7.22,4.21,8,8,0,0,1-5.87-2.46,8.12,8.12,0,0,1-2.43-5.9V136.8A8,8,0,0,1,384.79,130.94Zm-.33,6.89h12.46v-1a6.07,6.07,0,0,0-3.16-5.44,6.22,6.22,0,0,0-6.14,0,6.51,6.51,0,0,0-2.26,2.13,6.35,6.35,0,0,0-.9,3.31v1Z"/><path class="cls-3" d="M214.5,51a27.38,27.38,0,0,0-46.75,19.28v9.38a26.67,26.67,0,0,0,8,19.36A26.23,26.23,0,0,0,195,107.08a27.14,27.14,0,0,0,23.73-13.85l2-3.56H208l-.72.81a16.22,16.22,0,0,1-20.2,3.39,16.79,16.79,0,0,1-5.94-5.62A15.93,15.93,0,0,1,179,82h43.51V70.23A26.4,26.4,0,0,0,214.5,51Zm-3.09,20H178.84v-.68a16.51,16.51,0,0,1,2.37-8.7A16.9,16.9,0,0,1,187.12,56a16.26,16.26,0,0,1,16,0,17.14,17.14,0,0,1,5.94,5.62,16.37,16.37,0,0,1,2.33,8.64Z"/><path class="cls-4" d="M289,96.35a3.47,3.47,0,0,1-3.57-3.57V42.94H274.74v5a24.66,24.66,0,0,0-15.29-5,26.12,26.12,0,0,0-26.21,26.21V80.88a26.1,26.1,0,0,0,26.21,26.2,24.76,24.76,0,0,0,17.49-6.8,14.63,14.63,0,0,0,3.51,3.87,13.78,13.78,0,0,0,8.59,2.93h2.39V96.35Zm-14.3-15.47a15.38,15.38,0,1,1-30.76,0V69.15a15.38,15.38,0,1,1,30.76,0Z"/><path class="cls-5" d="M87.38,74.24V43.69A42.09,42.09,0,0,0,74.57,12.82,42.06,42.06,0,0,0,43.7,0,42.07,42.07,0,0,0,12.82,12.82,42.06,42.06,0,0,0,0,43.69V90.22A42.05,42.05,0,0,0,12.82,121.1,42.07,42.07,0,0,0,43.7,133.92,42.06,42.06,0,0,0,74.57,121.1l.12-.12,0,0a46.53,46.53,0,0,0,4.46-5.16c.17-.22.33-.45.49-.68.36-.49.69-1,1-1.5a41.51,41.51,0,0,0,3.27-6.08h0A45.17,45.17,0,0,0,87,96.35H72.09a29.47,29.47,0,0,1-7.79,14.49,28.11,28.11,0,0,1-20.6,8.52,28.14,28.14,0,0,1-20.62-8.52,28.1,28.1,0,0,1-8.52-20.62v-16ZM14.56,43.69a28.08,28.08,0,0,1,8.52-20.61A28.14,28.14,0,0,1,43.7,14.56a28.11,28.11,0,0,1,20.6,8.52,28,28,0,0,1,8.52,20.61v16H14.56Z"/><path class="cls-6" d="M136.77,66.76H122a6.16,6.16,0,0,1-4.54-1.92,6.55,6.55,0,0,1,0-9.25A6.16,6.16,0,0,1,122,53.67h20.25V42.94H122a17.16,17.16,0,0,0-17.18,17.19,16.89,16.89,0,0,0,5,12.22A16.47,16.47,0,0,0,122,77.49h14.8a9.43,9.43,0,1,1,0,18.86H97.66l-.1.73a48.36,48.36,0,0,1-2.52,10h41.73A20.25,20.25,0,0,0,157,86.83a19.27,19.27,0,0,0-6-14.24A19.75,19.75,0,0,0,136.77,66.76Z"/><path class="cls-7" d="M349.7,73.46l-24.21,24.2a5.39,5.39,0,1,0,7.61,7.58L357.25,81A34.48,34.48,0,0,1,349.7,73.46Z"/><path class="cls-8" d="M383.17,69.7A22.17,22.17,0,1,1,399,32V14.44a36.69,36.69,0,1,0-15.81,69.8A36.41,36.41,0,0,0,399,80.62V63.05A22.08,22.08,0,0,1,383.17,69.7Z"/><path class="cls-9" d="M454.32,50.59a26.14,26.14,0,0,0-33.85-2.65V14.44H409.74v92.64h10.73V69.15a15.38,15.38,0,1,1,30.76,0v37.93H462V69.15A25.39,25.39,0,0,0,454.32,50.59Z"/><path class="cls-10" d="M383.68,29.17A18.87,18.87,0,0,0,364.81,48h2.61a16.26,16.26,0,0,1,16.26-16.26Z"/></g></g></svg>