<?xml version="1.0" encoding="utf-8"?>
<!-- Generator: Adobe Illustrator 22.1.0, SVG Export Plug-In . SVG Version: 6.00 Build 0)  -->
<svg version="1.1" id="Capa_1" xmlns="http://www.w3.org/2000/svg" xmlns:xlink="http://www.w3.org/1999/xlink" x="0px" y="0px"
	 viewBox="0 0 512 512" style="enable-background:new 0 0 512 512;" xml:space="preserve">
<style type="text/css">
	.st0{fill:#F0F0F0;}
	.st1{fill:#D80027;}
	.st2{fill:#0052B4;}
	.st3{clip-path:url(#SVGID_2_);}
	.st4{fill:#2E52B2;}
	.st5{fill:#FFFFFF;}
</style>
<g>
	<rect y="85.3" class="st0" width="512" height="341.3"/>
	<polygon class="st1" points="288,85.3 224,85.3 224,224 0,224 0,288 224,288 224,426.7 288,426.7 288,288 512,288 512,224 288,224 
			"/>
	<g>
		<polygon class="st2" points="393.8,315.4 512,381 512,315.4 		"/>
		<polygon class="st2" points="311.7,315.4 512,426.7 512,395.2 368.3,315.4 		"/>
		<polygon class="st2" points="458.6,426.7 311.7,345 311.7,426.7 		"/>
	</g>
	<polygon class="st0" points="311.7,315.4 512,426.7 512,395.2 368.3,315.4 	"/>
	<polygon class="st1" points="311.7,315.4 512,426.7 512,395.2 368.3,315.4 	"/>
	<g>
		<polygon class="st2" points="90.3,315.4 0,365.5 0,315.4 		"/>
		<polygon class="st2" points="200.3,329.5 200.3,426.7 25.5,426.7 		"/>
	</g>
	<polygon class="st1" points="143.7,315.4 0,395.2 0,426.7 0,426.7 200.3,315.4 	"/>
	<g>
		<polygon class="st2" points="118.2,196.6 0,131 0,196.6 		"/>
		<polygon class="st2" points="200.3,196.6 0,85.3 0,116.8 143.7,196.6 		"/>
		<polygon class="st2" points="53.4,85.3 200.3,167 200.3,85.3 		"/>
	</g>
	<polygon class="st0" points="200.3,196.6 0,85.3 0,116.8 143.7,196.6 	"/>
	<polygon class="st1" points="200.3,196.6 0,85.3 0,116.8 143.7,196.6 	"/>
	<g>
		<polygon class="st2" points="421.7,196.6 512,146.4 512,196.6 		"/>
		<polygon class="st2" points="311.7,182.5 311.7,85.3 486.5,85.3 		"/>
	</g>
	<polygon class="st1" points="368.3,196.6 512,116.8 512,85.3 512,85.3 311.7,196.6 	"/>
</g>
<g>
	<defs>
		<rect id="SVGID_1_" x="0" y="85.3" width="256" height="341.3"/>
	</defs>
	<clipPath id="SVGID_2_">
		<use xlink:href="#SVGID_1_"  style="overflow:visible;"/>
	</clipPath>
	<g class="st3">
		<rect y="85.3" class="st0" width="512" height="341.3"/>
		<g>
			<rect y="128" class="st1" width="512" height="42.7"/>
			<rect y="213.3" class="st1" width="512" height="42.7"/>
			<rect y="298.7" class="st1" width="512" height="42.7"/>
			<rect y="384" class="st1" width="512" height="42.7"/>
		</g>
		<rect y="85.3" class="st4" width="256" height="183.8"/>
		<g>
			<polygon class="st0" points="99.8,160.6 95.7,173.3 82.4,173.3 93.2,181.1 89,193.8 99.8,186 110.6,193.8 106.5,181.1 
				117.3,173.3 103.9,173.3 			"/>
			<polygon class="st0" points="103.9,219.1 99.8,206.4 95.7,219.1 82.4,219.1 93.2,226.9 89,239.6 99.8,231.8 110.6,239.6 
				106.5,226.9 117.3,219.1 			"/>
			<polygon class="st0" points="47.6,219.1 43.5,206.4 39.3,219.1 26,219.1 36.8,226.9 32.7,239.6 43.5,231.8 54.2,239.6 
				50.1,226.9 60.9,219.1 			"/>
			<polygon class="st0" points="43.5,160.6 39.3,173.3 26,173.3 36.8,181.1 32.7,193.8 43.5,186 54.2,193.8 50.1,181.1 60.9,173.3 
				47.6,173.3 			"/>
			<polygon class="st0" points="99.8,114.8 95.7,127.5 82.4,127.5 93.2,135.4 89,148.1 99.8,140.2 110.6,148.1 106.5,135.4 
				117.3,127.5 103.9,127.5 			"/>
			<polygon class="st0" points="43.5,114.8 39.3,127.5 26,127.5 36.8,135.4 32.7,148.1 43.5,140.2 54.2,148.1 50.1,135.4 
				60.9,127.5 47.6,127.5 			"/>
			<polygon class="st0" points="156.2,160.6 152.1,173.3 138.7,173.3 149.5,181.1 145.4,193.8 156.2,186 167,193.8 162.8,181.1 
				173.6,173.3 160.3,173.3 			"/>
			<polygon class="st0" points="160.3,219.1 156.2,206.4 152.1,219.1 138.7,219.1 149.5,226.9 145.4,239.6 156.2,231.8 167,239.6 
				162.8,226.9 173.6,219.1 			"/>
			<polygon class="st0" points="216.7,219.1 212.5,206.4 208.4,219.1 195.1,219.1 205.9,226.9 201.8,239.6 212.5,231.8 223.3,239.6 
				219.2,226.9 230,219.1 			"/>
			<polygon class="st0" points="212.5,160.6 208.4,173.3 195.1,173.3 205.9,181.1 201.8,193.8 212.5,186 223.3,193.8 219.2,181.1 
				230,173.3 216.7,173.3 			"/>
			<polygon class="st0" points="156.2,114.8 152.1,127.5 138.7,127.5 149.5,135.4 145.4,148.1 156.2,140.2 167,148.1 162.8,135.4 
				173.6,127.5 160.3,127.5 			"/>
			<polygon class="st0" points="212.5,114.8 208.4,127.5 195.1,127.5 205.9,135.4 201.8,148.1 212.5,140.2 223.3,148.1 219.2,135.4 
				230,127.5 216.7,127.5 			"/>
		</g>
	</g>
</g>
<rect x="251.5" y="85.3" class="st5" width="9" height="341.3"/>
</svg>
